<svg xmlns="http://www.w3.org/2000/svg" width="749" height="68" viewBox="0 0 749 68" fill="none"><path d="M72.7716 34.1401C71.8647 34.1401 71.0943 34.0238 70.4606 33.7913C69.8269 33.5587 69.3124 33.2535 68.9171 32.8756C68.5217 32.4977 68.234 32.0733 68.0537 31.6024C67.8793 31.1256 67.7921 30.6489 67.7921 30.1722H70.5566C70.5566 30.6664 70.7455 31.0646 71.1234 31.3669C71.5071 31.6692 72.0536 31.8204 72.7629 31.8204C73.5361 31.8204 74.0884 31.707 74.4198 31.4803C74.757 31.2536 74.9256 30.9164 74.9256 30.4687C74.9256 30.2652 74.8733 30.0879 74.7686 29.9367C74.664 29.7856 74.5099 29.6519 74.3064 29.5356C74.1088 29.4193 73.8617 29.3176 73.5652 29.2304C73.2687 29.1373 72.9286 29.0472 72.5449 28.96C72.2135 28.8786 71.8734 28.7885 71.5245 28.6897C71.1757 28.585 70.8356 28.4629 70.5042 28.3234C70.1728 28.1839 69.8589 28.0211 69.5624 27.8351C69.2717 27.649 69.0159 27.431 68.795 27.181C68.5799 26.9252 68.4084 26.6345 68.2805 26.3089C68.1526 25.9776 68.0886 25.6026 68.0886 25.184C68.0886 24.6666 68.1816 24.1956 68.3677 23.7712C68.5595 23.341 68.8444 22.9719 69.2223 22.6637C69.606 22.3556 70.0827 22.1172 70.6525 21.9486C71.228 21.7742 71.8995 21.687 72.667 21.687C73.446 21.687 74.1233 21.7771 74.6989 21.9574C75.2802 22.1318 75.7657 22.3818 76.1552 22.7073C76.5447 23.0271 76.8354 23.4166 77.0273 23.8759C77.2191 24.3352 77.3151 24.8497 77.3151 25.4194H74.5506C74.5506 25.2508 74.5186 25.0881 74.4547 24.9311C74.3907 24.7741 74.2832 24.6346 74.132 24.5125C73.9867 24.3846 73.789 24.2829 73.539 24.2073C73.2948 24.1317 72.9925 24.0939 72.6321 24.0939C72.2658 24.0939 71.9664 24.1259 71.7338 24.1898C71.5013 24.2538 71.3182 24.3381 71.1844 24.4427C71.0565 24.5474 70.9693 24.6666 70.9228 24.8003C70.8763 24.934 70.8531 25.0677 70.8531 25.2014C70.8531 25.3933 70.9025 25.5619 71.0013 25.7072C71.106 25.8526 71.2658 25.9834 71.4809 26.0997C71.6961 26.2159 71.9693 26.3206 72.3007 26.4136C72.6379 26.5066 73.039 26.5967 73.5041 26.6839C74.0971 26.806 74.6494 26.963 75.1611 27.1549C75.6785 27.3467 76.1261 27.5938 76.504 27.8961C76.8877 28.1926 77.1871 28.5531 77.4023 28.9775C77.6174 29.4019 77.7249 29.9019 77.7249 30.4774C77.7249 31.0704 77.6028 31.5966 77.3587 32.0558C77.1203 32.5093 76.7831 32.8901 76.3471 33.1983C75.911 33.5064 75.3878 33.7389 74.7773 33.8959C74.1727 34.0587 73.5041 34.1401 72.7716 34.1401Z" fill="white"></path><path d="M79.4342 21.9835H87.7973V24.434H82.1986V26.6752H87.0037V28.9775H82.1986V31.3844H87.8757V33.8436H79.4342V21.9835Z" fill="white"></path><path d="M94.6342 34.1139C93.8959 34.1139 93.2099 34.0035 92.5762 33.7825C91.9425 33.5558 91.3902 33.2331 90.9192 32.8145C90.4541 32.396 90.0879 31.8873 89.8204 31.2884C89.553 30.6896 89.4193 30.0152 89.4193 29.2652V21.9835H92.175V29.0647C92.175 29.4251 92.2273 29.7623 92.332 30.0763C92.4424 30.3844 92.5994 30.6518 92.8029 30.8786C93.0122 31.1053 93.268 31.2855 93.5703 31.4192C93.8784 31.5471 94.2331 31.6111 94.6342 31.6111C95.0238 31.6111 95.3697 31.5471 95.672 31.4192C95.9743 31.2855 96.2301 31.1053 96.4394 30.8786C96.6487 30.6518 96.8057 30.3844 96.9103 30.0763C97.0208 29.7623 97.076 29.4251 97.076 29.0647V21.9835H99.8405V29.2652C99.8405 29.9687 99.7155 30.6169 99.4655 31.2099C99.2213 31.803 98.8725 32.3146 98.419 32.7448C97.9655 33.175 97.4161 33.5122 96.7708 33.7564C96.1313 33.9947 95.4191 34.1139 94.6342 34.1139Z" fill="white"></path><path d="M106.398 34.1401C105.491 34.1401 104.721 34.0238 104.087 33.7913C103.454 33.5587 102.939 33.2535 102.544 32.8756C102.149 32.4977 101.861 32.0733 101.681 31.6024C101.506 31.1256 101.419 30.6489 101.419 30.1722H104.183C104.183 30.6664 104.372 31.0646 104.75 31.3669C105.134 31.6692 105.68 31.8204 106.39 31.8204C107.163 31.8204 107.715 31.707 108.047 31.4803C108.384 31.2536 108.552 30.9164 108.552 30.4687C108.552 30.2652 108.5 30.0879 108.395 29.9367C108.291 29.7856 108.137 29.6519 107.933 29.5356C107.736 29.4193 107.488 29.3176 107.192 29.2304C106.895 29.1373 106.555 29.0472 106.172 28.96C105.84 28.8786 105.5 28.7885 105.151 28.6897C104.802 28.585 104.462 28.4629 104.131 28.3234C103.8 28.1839 103.486 28.0211 103.189 27.8351C102.898 27.649 102.643 27.431 102.422 27.181C102.207 26.9252 102.035 26.6345 101.907 26.3089C101.779 25.9776 101.715 25.6026 101.715 25.184C101.715 24.6666 101.808 24.1956 101.994 23.7712C102.186 23.341 102.471 22.9719 102.849 22.6637C103.233 22.3556 103.71 22.1172 104.279 21.9486C104.855 21.7742 105.526 21.687 106.294 21.687C107.073 21.687 107.75 21.7771 108.326 21.9574C108.907 22.1318 109.392 22.3818 109.782 22.7073C110.172 23.0271 110.462 23.4166 110.654 23.8759C110.846 24.3352 110.942 24.8497 110.942 25.4194H108.177C108.177 25.2508 108.145 25.0881 108.081 24.9311C108.018 24.7741 107.91 24.6346 107.759 24.5125C107.613 24.3846 107.416 24.2829 107.166 24.2073C106.922 24.1317 106.619 24.0939 106.259 24.0939C105.893 24.0939 105.593 24.1259 105.361 24.1898C105.128 24.2538 104.945 24.3381 104.811 24.4427C104.683 24.5474 104.596 24.6666 104.55 24.8003C104.503 24.934 104.48 25.0677 104.48 25.2014C104.48 25.3933 104.529 25.5619 104.628 25.7072C104.733 25.8526 104.893 25.9834 105.108 26.0997C105.323 26.2159 105.596 26.3206 105.927 26.4136C106.265 26.5066 106.666 26.5967 107.131 26.6839C107.724 26.806 108.276 26.963 108.788 27.1549C109.305 27.3467 109.753 27.5938 110.131 27.8961C110.515 28.1926 110.814 28.5531 111.029 28.9775C111.244 29.4019 111.352 29.9019 111.352 30.4774C111.352 31.0704 111.23 31.5966 110.985 32.0558C110.747 32.5093 110.41 32.8901 109.974 33.1983C109.538 33.5064 109.015 33.7389 108.404 33.8959C107.799 34.0587 107.131 34.1401 106.398 34.1401Z" fill="white"></path><path d="M117.351 21.9835H122.157C123.11 21.9835 123.976 22.126 124.755 22.4108C125.54 22.6957 126.209 23.0968 126.761 23.6143C127.319 24.1317 127.749 24.7538 128.052 25.4805C128.36 26.2072 128.514 27.0153 128.514 27.9048C128.514 28.7943 128.363 29.6054 128.06 30.3379C127.758 31.0704 127.328 31.6954 126.77 32.2128C126.217 32.7302 125.552 33.1314 124.773 33.4163C124 33.7011 123.136 33.8436 122.183 33.8436H117.351V21.9835ZM122.087 31.3931C122.662 31.3931 123.174 31.3146 123.622 31.1576C124.075 31.0007 124.459 30.7739 124.773 30.4774C125.087 30.1809 125.325 29.8205 125.488 29.3961C125.651 28.9658 125.732 28.4804 125.732 27.9397C125.732 27.4107 125.654 26.931 125.497 26.5008C125.34 26.0648 125.107 25.6956 124.799 25.3933C124.491 25.0852 124.107 24.8497 123.648 24.6869C123.194 24.5183 122.671 24.434 122.078 24.434H120.081V31.3931H122.087Z" fill="white"></path><path d="M136.921 31.9163H131.976L131.209 33.8436H128.287L133.153 21.9748H135.743L140.609 33.8436H137.688L136.921 31.9163ZM136.014 29.6228L134.54 25.9165L134.461 25.5503H134.435L134.357 25.9165L132.883 29.6228H136.014Z" fill="white"></path><path d="M141.874 21.9835H146.679C147.632 21.9835 148.499 22.126 149.278 22.4108C150.063 22.6957 150.731 23.0968 151.283 23.6143C151.842 24.1317 152.272 24.7538 152.574 25.4805C152.882 26.2072 153.036 27.0153 153.036 27.9048C153.036 28.7943 152.885 29.6054 152.583 30.3379C152.281 31.0704 151.85 31.6954 151.292 32.2128C150.74 32.7302 150.074 33.1314 149.295 33.4163C148.522 33.7011 147.659 33.8436 146.705 33.8436H141.874V21.9835ZM146.609 31.3931C147.185 31.3931 147.696 31.3146 148.144 31.1576C148.598 31.0007 148.981 30.7739 149.295 30.4774C149.609 30.1809 149.847 29.8205 150.01 29.3961C150.173 28.9658 150.254 28.4804 150.254 27.9397C150.254 27.4107 150.176 26.931 150.019 26.5008C149.862 26.0648 149.629 25.6956 149.321 25.3933C149.013 25.0852 148.63 24.8497 148.17 24.6869C147.717 24.5183 147.194 24.434 146.601 24.434H144.603V31.3931H146.609Z" fill="white"></path><path d="M160.405 34.1139C159.516 34.1139 158.679 33.9511 157.894 33.6256C157.109 33.3 156.423 32.8581 155.836 32.3C155.254 31.7361 154.795 31.0762 154.458 30.3204C154.121 29.5647 153.952 28.7565 153.952 27.8961C153.952 27.0299 154.121 26.2217 154.458 25.4718C154.795 24.716 155.254 24.059 155.836 23.5009C156.423 22.937 157.109 22.4951 157.894 22.1754C158.679 21.8498 159.516 21.687 160.405 21.687C161.295 21.687 162.129 21.8498 162.908 22.1754C163.693 22.4951 164.376 22.937 164.957 23.5009C165.545 24.059 166.007 24.716 166.344 25.4718C166.681 26.2217 166.85 27.0299 166.85 27.8961C166.85 28.7565 166.681 29.5647 166.344 30.3204C166.007 31.0762 165.545 31.7361 164.957 32.3C164.376 32.8581 163.693 33.3 162.908 33.6256C162.129 33.9511 161.295 34.1139 160.405 34.1139ZM160.405 31.5849C160.917 31.5849 161.397 31.4948 161.844 31.3146C162.292 31.1286 162.681 30.8727 163.013 30.5472C163.35 30.2216 163.614 29.835 163.806 29.3873C163.998 28.9339 164.094 28.4397 164.094 27.9048C164.094 27.37 163.998 26.8758 163.806 26.4223C163.614 25.9688 163.35 25.5793 163.013 25.2538C162.681 24.9282 162.292 24.6753 161.844 24.4951C161.397 24.309 160.917 24.216 160.405 24.216C159.894 24.216 159.411 24.309 158.958 24.4951C158.51 24.6753 158.12 24.9282 157.789 25.2538C157.458 25.5793 157.196 25.9688 157.004 26.4223C156.812 26.8758 156.716 27.37 156.716 27.9048C156.716 28.4397 156.812 28.9339 157.004 29.3873C157.196 29.835 157.458 30.2216 157.789 30.5472C158.126 30.8727 158.519 31.1286 158.966 31.3146C159.414 31.4948 159.894 31.5849 160.405 31.5849Z" fill="white"></path><path d="M172.832 34.1401C171.925 34.1401 171.155 34.0238 170.521 33.7913C169.888 33.5587 169.373 33.2535 168.978 32.8756C168.582 32.4977 168.295 32.0733 168.114 31.6024C167.94 31.1256 167.853 30.6489 167.853 30.1722H170.617C170.617 30.6664 170.806 31.0646 171.184 31.3669C171.568 31.6692 172.114 31.8204 172.823 31.8204C173.597 31.8204 174.149 31.707 174.48 31.4803C174.818 31.2536 174.986 30.9164 174.986 30.4687C174.986 30.2652 174.934 30.0879 174.829 29.9367C174.725 29.7856 174.571 29.6519 174.367 29.5356C174.169 29.4193 173.922 29.3176 173.626 29.2304C173.329 29.1373 172.989 29.0472 172.605 28.96C172.274 28.8786 171.934 28.7885 171.585 28.6897C171.236 28.585 170.896 28.4629 170.565 28.3234C170.233 28.1839 169.919 28.0211 169.623 27.8351C169.332 27.649 169.077 27.431 168.856 27.181C168.64 26.9252 168.469 26.6345 168.341 26.3089C168.213 25.9776 168.149 25.6026 168.149 25.184C168.149 24.6666 168.242 24.1956 168.428 23.7712C168.62 23.341 168.905 22.9719 169.283 22.6637C169.667 22.3556 170.143 22.1172 170.713 21.9486C171.289 21.7742 171.96 21.687 172.728 21.687C173.507 21.687 174.184 21.7771 174.759 21.9574C175.341 22.1318 175.826 22.3818 176.216 22.7073C176.605 23.0271 176.896 23.4166 177.088 23.8759C177.28 24.3352 177.376 24.8497 177.376 25.4194H174.611C174.611 25.2508 174.579 25.0881 174.515 24.9311C174.451 24.7741 174.344 24.6346 174.193 24.5125C174.047 24.3846 173.85 24.2829 173.6 24.2073C173.355 24.1317 173.053 24.0939 172.693 24.0939C172.326 24.0939 172.027 24.1259 171.794 24.1898C171.562 24.2538 171.379 24.3381 171.245 24.4427C171.117 24.5474 171.03 24.6666 170.983 24.8003C170.937 24.934 170.914 25.0677 170.914 25.2014C170.914 25.3933 170.963 25.5619 171.062 25.7072C171.167 25.8526 171.326 25.9834 171.542 26.0997C171.757 26.2159 172.03 26.3206 172.361 26.4136C172.698 26.5066 173.1 26.5967 173.565 26.6839C174.158 26.806 174.71 26.963 175.222 27.1549C175.739 27.3467 176.187 27.5938 176.565 27.8961C176.948 28.1926 177.248 28.5531 177.463 28.9775C177.678 29.4019 177.786 29.9019 177.786 30.4774C177.786 31.0704 177.663 31.5966 177.419 32.0558C177.181 32.5093 176.844 32.8901 176.408 33.1983C175.972 33.5064 175.448 33.7389 174.838 33.8959C174.233 34.0587 173.565 34.1401 172.832 34.1401Z" fill="white"></path><path d="M68.4636 47.9835H76.8267V50.434H71.228V52.6752H76.0331V54.9775H71.228V57.3844H76.9052V59.8436H68.4636V47.9835Z" fill="white"></path><path d="M82.9399 60.1401C82.0329 60.1401 81.2626 60.0238 80.6289 59.7913C79.9952 59.5587 79.4807 59.2535 79.0853 58.8756C78.69 58.4977 78.4022 58.0733 78.222 57.6024C78.0476 57.1256 77.9604 56.6489 77.9604 56.1722H80.7248C80.7248 56.6664 80.9138 57.0646 81.2917 57.3669C81.6754 57.6692 82.2219 57.8204 82.9311 57.8204C83.7044 57.8204 84.2567 57.707 84.5881 57.4803C84.9253 57.2535 85.0939 56.9164 85.0939 56.4687C85.0939 56.2652 85.0415 56.0879 84.9369 55.9367C84.8322 55.7856 84.6782 55.6519 84.4747 55.5356C84.277 55.4193 84.0299 55.3176 83.7334 55.2304C83.4369 55.1373 83.0968 55.0472 82.7131 54.96C82.3817 54.8786 82.0416 54.7885 81.6928 54.6897C81.344 54.585 81.0039 54.4629 80.6725 54.3234C80.3411 54.1839 80.0272 54.0211 79.7307 53.8351C79.44 53.649 79.1842 53.431 78.9633 53.181C78.7481 52.9252 78.5766 52.6345 78.4487 52.309C78.3208 51.9776 78.2569 51.6026 78.2569 51.184C78.2569 50.6666 78.3499 50.1956 78.5359 49.7712C78.7278 49.341 79.0127 48.9719 79.3906 48.6637C79.7743 48.3556 80.251 48.1172 80.8207 47.9486C81.3963 47.7742 82.0678 47.687 82.8352 47.687C83.6143 47.687 84.2916 47.7771 84.8671 47.9574C85.4485 48.1318 85.9339 48.3818 86.3235 48.7073C86.713 49.0271 87.0037 49.4166 87.1955 49.8759C87.3874 50.3352 87.4833 50.8497 87.4833 51.4194H84.7189C84.7189 51.2508 84.6869 51.0881 84.6229 50.9311C84.559 50.7741 84.4514 50.6346 84.3003 50.5125C84.1549 50.3846 83.9573 50.2829 83.7073 50.2073C83.4631 50.1317 83.1608 50.0939 82.8003 50.0939C82.4341 50.0939 82.1347 50.1259 81.9021 50.1898C81.6696 50.2538 81.4864 50.3381 81.3527 50.4427C81.2248 50.5474 81.1376 50.6666 81.0911 50.8003C81.0446 50.934 81.0213 51.0677 81.0213 51.2014C81.0213 51.3933 81.0707 51.5619 81.1696 51.7072C81.2742 51.8526 81.4341 51.9834 81.6492 52.0997C81.8643 52.2159 82.1376 52.3206 82.4689 52.4136C82.8061 52.5066 83.2073 52.5967 83.6724 52.6839C84.2654 52.806 84.8177 52.963 85.3293 53.1549C85.8467 53.3467 86.2944 53.5938 86.6723 53.8961C87.056 54.1926 87.3554 54.5531 87.5705 54.9775C87.7856 55.4019 87.8932 55.9019 87.8932 56.4774C87.8932 57.0704 87.7711 57.5966 87.5269 58.0559C87.2886 58.5093 86.9514 58.8901 86.5153 59.1983C86.0793 59.5064 85.5561 59.7389 84.9456 59.8959C84.341 60.0587 83.6724 60.1401 82.9399 60.1401Z" fill="white"></path><path d="M91.9657 50.4427H88.6432V47.9835H98.0266V50.4427H94.7127V59.8436H91.9657V50.4427Z" fill="white"></path><path d="M102.212 46.6493C102.085 46.6493 101.962 46.6812 101.846 46.7452C101.73 46.8033 101.617 46.9487 101.506 47.1812L100.643 46.4748C100.713 46.2539 100.806 46.0504 100.922 45.8644C101.038 45.6784 101.169 45.5214 101.314 45.3935C101.465 45.2598 101.631 45.1609 101.811 45.097C101.992 45.0272 102.186 44.9981 102.396 45.0098C102.599 45.0214 102.782 45.0563 102.945 45.1144C103.108 45.1667 103.256 45.2249 103.39 45.2888C103.523 45.347 103.648 45.4022 103.765 45.4545C103.881 45.501 103.997 45.5243 104.114 45.5243C104.265 45.5243 104.41 45.4749 104.55 45.376C104.689 45.2714 104.814 45.0941 104.925 44.8441L105.814 45.5505C105.645 46.0446 105.419 46.4371 105.134 46.7277C104.849 47.0184 104.497 47.1638 104.079 47.1638C103.858 47.1638 103.654 47.1376 103.468 47.0853C103.288 47.033 103.119 46.9748 102.962 46.9109C102.811 46.8411 102.675 46.7801 102.553 46.7277C102.43 46.6754 102.317 46.6493 102.212 46.6493ZM105.736 57.9163H100.791L100.024 59.8436H97.1022L101.968 47.9748H104.558L109.424 59.8436H106.503L105.736 57.9163ZM104.829 55.6228L103.355 51.9165L103.276 51.5503H103.25L103.172 51.9165L101.698 55.6228H104.829Z" fill="white"></path><path d="M115.721 60.1139C114.831 60.1139 113.994 59.9511 113.209 59.6256C112.424 59.3 111.738 58.8581 111.151 58.3C110.57 57.7361 110.11 57.0762 109.773 56.3204C109.436 55.5647 109.267 54.7565 109.267 53.8961C109.267 53.0299 109.436 52.2217 109.773 51.4718C110.11 50.716 110.57 50.059 111.151 49.5009C111.738 48.937 112.424 48.4951 113.209 48.1754C113.994 47.8498 114.831 47.687 115.721 47.687C116.61 47.687 117.445 47.8498 118.224 48.1754C119.008 48.4951 119.692 48.937 120.273 49.5009C120.86 50.059 121.322 50.716 121.659 51.4718C121.997 52.2217 122.165 53.0299 122.165 53.8961C122.165 54.7565 121.997 55.5647 121.659 56.3204C121.322 57.0762 120.86 57.7361 120.273 58.3C119.692 58.8581 119.008 59.3 118.224 59.6256C117.445 59.9511 116.61 60.1139 115.721 60.1139ZM115.721 57.5849C116.232 57.5849 116.712 57.4948 117.16 57.3146C117.607 57.1286 117.997 56.8728 118.328 56.5472C118.665 56.2216 118.93 55.835 119.122 55.3873C119.314 54.9339 119.41 54.4397 119.41 53.9048C119.41 53.37 119.314 52.8758 119.122 52.4223C118.93 51.9688 118.665 51.5793 118.328 51.2538C117.997 50.9282 117.607 50.6753 117.16 50.4951C116.712 50.309 116.232 50.216 115.721 50.216C115.209 50.216 114.727 50.309 114.273 50.4951C113.825 50.6753 113.436 50.9282 113.105 51.2538C112.773 51.5793 112.512 51.9688 112.32 52.4223C112.128 52.8758 112.032 53.37 112.032 53.9048C112.032 54.4397 112.128 54.9339 112.32 55.3873C112.512 55.835 112.773 56.2216 113.105 56.5472C113.442 56.8728 113.834 57.1286 114.282 57.3146C114.729 57.4948 115.209 57.5849 115.721 57.5849Z" fill="white"></path><path d="M128.13 47.9835H133.267C133.889 47.9835 134.461 48.0853 134.985 48.2887C135.508 48.4922 135.958 48.7771 136.336 49.1434C136.714 49.5096 137.008 49.9457 137.217 50.4515C137.432 50.9514 137.54 51.4979 137.54 52.0909C137.54 52.7304 137.435 53.3118 137.226 53.8351C137.017 54.3525 136.723 54.7972 136.345 55.1693C135.973 55.5356 135.525 55.8205 135.002 56.0239C134.485 56.2216 133.918 56.3204 133.302 56.3204H130.895V59.8436H128.13V47.9835ZM133.153 53.8699C133.38 53.8699 133.589 53.8263 133.781 53.7391C133.979 53.6461 134.15 53.5211 134.296 53.3641C134.447 53.2014 134.563 53.0124 134.645 52.7973C134.732 52.5764 134.775 52.3409 134.775 52.0909C134.775 51.8816 134.732 51.6782 134.645 51.4805C134.563 51.2828 134.45 51.1084 134.304 50.9573C134.159 50.8003 133.988 50.6753 133.79 50.5823C133.592 50.4892 133.38 50.4427 133.153 50.4427H130.895V53.8699H133.153Z" fill="white"></path><path d="M138.961 47.9835H144.167C144.795 47.9835 145.371 48.0823 145.894 48.28C146.417 48.4719 146.868 48.7422 147.246 49.091C147.624 49.4399 147.917 49.8614 148.127 50.3555C148.342 50.8439 148.449 51.3846 148.449 51.9776C148.449 52.3787 148.397 52.7595 148.292 53.12C148.188 53.4746 148.037 53.8002 147.839 54.0967C147.641 54.3932 147.403 54.6548 147.124 54.8815C146.851 55.1083 146.542 55.2943 146.199 55.4397L148.728 59.8436H145.563L143.487 55.8757H141.726V59.8436H138.961V47.9835ZM144.054 53.5647C144.281 53.5647 144.493 53.5269 144.691 53.4514C144.894 53.37 145.069 53.2595 145.214 53.12C145.359 52.9804 145.473 52.8147 145.554 52.6229C145.641 52.4252 145.685 52.2101 145.685 51.9776C145.685 51.7683 145.641 51.5706 145.554 51.3846C145.473 51.1985 145.356 51.0357 145.205 50.8962C145.06 50.7567 144.888 50.6462 144.691 50.5648C144.493 50.4834 144.281 50.4427 144.054 50.4427H141.726V53.5647H144.054Z" fill="white"></path><path d="M155.853 60.1139C154.964 60.1139 154.126 59.9511 153.342 59.6256C152.557 59.3 151.871 58.8581 151.283 58.3C150.702 57.7361 150.243 57.0762 149.906 56.3204C149.568 55.5647 149.4 54.7565 149.4 53.8961C149.4 53.0299 149.568 52.2217 149.906 51.4718C150.243 50.716 150.702 50.059 151.283 49.5009C151.871 48.937 152.557 48.4951 153.342 48.1754C154.126 47.8498 154.964 47.687 155.853 47.687C156.743 47.687 157.577 47.8498 158.356 48.1754C159.141 48.4951 159.824 48.937 160.405 49.5009C160.992 50.059 161.455 50.716 161.792 51.4718C162.129 52.2217 162.298 53.0299 162.298 53.8961C162.298 54.7565 162.129 55.5647 161.792 56.3204C161.455 57.0762 160.992 57.7361 160.405 58.3C159.824 58.8581 159.141 59.3 158.356 59.6256C157.577 59.9511 156.743 60.1139 155.853 60.1139ZM155.853 57.5849C156.365 57.5849 156.844 57.4948 157.292 57.3146C157.74 57.1286 158.129 56.8728 158.461 56.5472C158.798 56.2216 159.062 55.835 159.254 55.3873C159.446 54.9339 159.542 54.4397 159.542 53.9048C159.542 53.37 159.446 52.8758 159.254 52.4223C159.062 51.9688 158.798 51.5793 158.461 51.2538C158.129 50.9282 157.74 50.6753 157.292 50.4951C156.844 50.309 156.365 50.216 155.853 50.216C155.342 50.216 154.859 50.309 154.405 50.4951C153.958 50.6753 153.568 50.9282 153.237 51.2538C152.906 51.5793 152.644 51.9688 152.452 52.4223C152.26 52.8758 152.164 53.37 152.164 53.9048C152.164 54.4397 152.26 54.9339 152.452 55.3873C152.644 55.835 152.906 56.2216 153.237 56.5472C153.574 56.8728 153.967 57.1286 154.414 57.3146C154.862 57.4948 155.342 57.5849 155.853 57.5849Z" fill="white"></path><path d="M165.864 50.4427H162.542V47.9835H171.925V50.4427H168.611V59.8436H165.864V50.4427Z" fill="white"></path><path d="M173.46 47.9835H181.823V50.434H176.225V52.6752H181.03V54.9775H176.225V57.3844H181.902V59.8436H173.46V47.9835Z" fill="white"></path><path d="M189.166 60.1139C188.306 60.1139 187.492 59.9511 186.724 59.6256C185.963 59.3 185.294 58.8581 184.718 58.3C184.149 57.7361 183.698 57.0762 183.367 56.3204C183.035 55.5647 182.87 54.7565 182.87 53.8961C182.87 53.0299 183.035 52.2217 183.367 51.4718C183.698 50.716 184.152 50.059 184.727 49.5009C185.303 48.937 185.977 48.4951 186.75 48.1754C187.524 47.8498 188.349 47.687 189.227 47.687C189.849 47.687 190.483 47.7858 191.128 47.9835C191.773 48.1754 192.369 48.4573 192.916 48.8294C193.468 49.2015 193.942 49.6608 194.337 50.2073C194.738 50.748 195 51.3671 195.122 52.0648H192.314C192.023 51.4834 191.608 51.0299 191.067 50.7044C190.532 50.3788 189.893 50.216 189.148 50.216C188.672 50.216 188.218 50.3003 187.788 50.4689C187.364 50.6375 186.992 50.8817 186.672 51.2014C186.352 51.5212 186.099 51.9078 185.913 52.3613C185.727 52.8147 185.634 53.3293 185.634 53.9048C185.634 54.492 185.727 55.0153 185.913 55.4745C186.099 55.928 186.352 56.3117 186.672 56.6257C186.992 56.9396 187.364 57.178 187.788 57.3408C188.218 57.5035 188.672 57.5849 189.148 57.5849C189.945 57.5849 190.614 57.4076 191.154 57.053C191.695 56.6925 192.05 56.1867 192.218 55.5356H189.044V53.3293H195.288C195.299 54.3699 195.169 55.3088 194.895 56.146C194.628 56.9832 194.23 57.6954 193.701 58.2826C193.177 58.8698 192.535 59.3232 191.773 59.643C191.012 59.9569 190.143 60.1139 189.166 60.1139Z" fill="white"></path><path d="M196.953 47.9835H199.718V59.8436H196.953V47.9835Z" fill="white"></path><path d="M202.151 47.9835H206.956C207.91 47.9835 208.776 48.1259 209.555 48.4108C210.34 48.6957 211.008 49.0968 211.561 49.6143C212.119 50.1317 212.549 50.7538 212.851 51.4805C213.159 52.2072 213.313 53.0153 213.313 53.9048C213.313 54.7943 213.162 55.6053 212.86 56.3379C212.558 57.0704 212.127 57.6954 211.569 58.2128C211.017 58.7302 210.351 59.1314 209.572 59.4163C208.799 59.7011 207.936 59.8436 206.982 59.8436H202.151V47.9835ZM206.886 57.3931C207.462 57.3931 207.973 57.3146 208.421 57.1576C208.875 57.0007 209.258 56.7739 209.572 56.4774C209.886 56.1809 210.125 55.8205 210.287 55.3961C210.45 54.9658 210.532 54.4804 210.532 53.9397C210.532 53.4107 210.453 52.931 210.296 52.5008C210.139 52.0648 209.907 51.6956 209.598 51.3933C209.29 51.0852 208.907 50.8497 208.447 50.6869C207.994 50.5183 207.471 50.434 206.878 50.434H204.881V57.3931H206.886Z" fill="white"></path><path d="M220.682 60.1139C219.793 60.1139 218.956 59.9511 218.171 59.6256C217.386 59.3 216.7 58.8581 216.113 58.3C215.531 57.7361 215.072 57.0762 214.735 56.3204C214.398 55.5647 214.229 54.7565 214.229 53.8961C214.229 53.0299 214.398 52.2217 214.735 51.4718C215.072 50.716 215.531 50.059 216.113 49.5009C216.7 48.937 217.386 48.4951 218.171 48.1754C218.956 47.8498 219.793 47.687 220.682 47.687C221.572 47.687 222.406 47.8498 223.185 48.1754C223.97 48.4951 224.653 48.937 225.235 49.5009C225.822 50.059 226.284 50.716 226.621 51.4718C226.958 52.2217 227.127 53.0299 227.127 53.8961C227.127 54.7565 226.958 55.5647 226.621 56.3204C226.284 57.0762 225.822 57.7361 225.235 58.3C224.653 58.8581 223.97 59.3 223.185 59.6256C222.406 59.9511 221.572 60.1139 220.682 60.1139ZM220.682 57.5849C221.194 57.5849 221.674 57.4948 222.121 57.3146C222.569 57.1286 222.958 56.8728 223.29 56.5472C223.627 56.2216 223.892 55.835 224.083 55.3873C224.275 54.9339 224.371 54.4397 224.371 53.9048C224.371 53.37 224.275 52.8758 224.083 52.4223C223.892 51.9688 223.627 51.5793 223.29 51.2538C222.958 50.9282 222.569 50.6753 222.121 50.4951C221.674 50.309 221.194 50.216 220.682 50.216C220.171 50.216 219.688 50.309 219.235 50.4951C218.787 50.6753 218.398 50.9282 218.066 51.2538C217.735 51.5793 217.473 51.9688 217.281 52.4223C217.089 52.8758 216.993 53.37 216.993 53.9048C216.993 54.4397 217.089 54.9339 217.281 55.3873C217.473 55.835 217.735 56.2216 218.066 56.5472C218.403 56.8728 218.796 57.1286 219.243 57.3146C219.691 57.4948 220.171 57.5849 220.682 57.5849Z" fill="white"></path><path d="M233.109 60.1401C232.202 60.1401 231.432 60.0238 230.798 59.7913C230.165 59.5587 229.65 59.2535 229.255 58.8756C228.859 58.4977 228.572 58.0733 228.391 57.6024C228.217 57.1256 228.13 56.6489 228.13 56.1722H230.894C230.894 56.6664 231.083 57.0646 231.461 57.3669C231.845 57.6692 232.391 57.8204 233.101 57.8204C233.874 57.8204 234.426 57.707 234.757 57.4803C235.095 57.2535 235.263 56.9164 235.263 56.4687C235.263 56.2652 235.211 56.0879 235.106 55.9367C235.002 55.7856 234.848 55.6519 234.644 55.5356C234.446 55.4193 234.199 55.3176 233.903 55.2304C233.606 55.1373 233.266 55.0472 232.882 54.96C232.551 54.8786 232.211 54.7885 231.862 54.6897C231.513 54.585 231.173 54.4629 230.842 54.3234C230.51 54.1839 230.197 54.0211 229.9 53.8351C229.609 53.649 229.354 53.431 229.133 53.181C228.918 52.9252 228.746 52.6345 228.618 52.309C228.49 51.9776 228.426 51.6026 228.426 51.184C228.426 50.6666 228.519 50.1956 228.705 49.7712C228.897 49.341 229.182 48.9719 229.56 48.6637C229.944 48.3556 230.42 48.1172 230.99 47.9486C231.566 47.7742 232.237 47.687 233.005 47.687C233.784 47.687 234.461 47.7771 235.036 47.9574C235.618 48.1318 236.103 48.3818 236.493 48.7073C236.882 49.0271 237.173 49.4166 237.365 49.8759C237.557 50.3352 237.653 50.8497 237.653 51.4194H234.888C234.888 51.2508 234.856 51.0881 234.792 50.9311C234.728 50.7741 234.621 50.6346 234.47 50.5125C234.324 50.3846 234.127 50.2829 233.877 50.2073C233.632 50.1317 233.33 50.0939 232.97 50.0939C232.603 50.0939 232.304 50.1259 232.071 50.1898C231.839 50.2538 231.656 50.3381 231.522 50.4427C231.394 50.5474 231.307 50.6666 231.26 50.8003C231.214 50.934 231.191 51.0677 231.191 51.2014C231.191 51.3933 231.24 51.5619 231.339 51.7072C231.444 51.8526 231.603 51.9834 231.819 52.0997C232.034 52.2159 232.307 52.3206 232.638 52.4136C232.976 52.5066 233.377 52.5967 233.842 52.6839C234.435 52.806 234.987 52.963 235.499 53.1549C236.016 53.3467 236.464 53.5938 236.842 53.8961C237.225 54.1926 237.525 54.5531 237.74 54.9775C237.955 55.4019 238.063 55.9019 238.063 56.4774C238.063 57.0704 237.94 57.5966 237.696 58.0559C237.458 58.5093 237.121 58.8901 236.685 59.1983C236.249 59.5064 235.725 59.7389 235.115 59.8959C234.51 60.0587 233.842 60.1401 233.109 60.1401Z" fill="white"></path><path d="M359.664 31.9163H354.719L353.952 33.8436H351.031L355.897 21.9748H358.487L363.353 33.8436H360.431L359.664 31.9163ZM358.757 29.6228L357.283 25.9165L357.205 25.5503H357.179L357.1 25.9165L355.626 29.6228H358.757Z" fill="white"></path><path d="M369.536 34.1139C368.658 34.1139 367.832 33.9511 367.059 33.6256C366.292 33.3 365.62 32.8581 365.045 32.3C364.475 31.7361 364.024 31.0762 363.693 30.3204C363.362 29.5647 363.196 28.7565 363.196 27.8961C363.196 27.0299 363.362 26.2217 363.693 25.4718C364.024 24.716 364.475 24.059 365.045 23.5009C365.62 22.937 366.292 22.4951 367.059 22.1754C367.832 21.8498 368.658 21.687 369.536 21.687C370.158 21.687 370.789 21.7829 371.428 21.9748C372.073 22.1666 372.669 22.4631 373.216 22.8643C373.762 23.2654 374.23 23.78 374.62 24.4079C375.015 25.0299 375.277 25.7741 375.405 26.6403H372.588C372.483 26.2043 372.329 25.8351 372.126 25.5328C371.928 25.2247 371.693 24.9747 371.419 24.7828C371.146 24.5852 370.841 24.4427 370.504 24.3555C370.172 24.2625 369.824 24.216 369.457 24.216C368.981 24.216 368.53 24.3003 368.106 24.4689C367.681 24.6375 367.309 24.8817 366.989 25.2014C366.67 25.5212 366.417 25.9078 366.231 26.3613C366.05 26.8147 365.96 27.3293 365.96 27.9048C365.96 28.492 366.05 29.0153 366.231 29.4745C366.417 29.928 366.67 30.3117 366.989 30.6257C367.309 30.9396 367.681 31.178 368.106 31.3408C368.53 31.5035 368.981 31.5849 369.457 31.5849C369.824 31.5849 370.172 31.5413 370.504 31.4541C370.835 31.3611 371.137 31.2187 371.411 31.0268C371.684 30.835 371.919 30.5879 372.117 30.2856C372.321 29.9774 372.475 29.6054 372.579 29.1693H375.405C375.277 30.0298 375.018 30.7739 374.629 31.4018C374.239 32.0239 373.771 32.5355 373.225 32.9366C372.678 33.3378 372.082 33.6343 371.437 33.8261C370.797 34.018 370.164 34.1139 369.536 34.1139Z" fill="white"></path><path d="M377.088 21.9835H385.451V24.434H379.852V26.6752H384.657V28.9775H379.852V31.3844H385.529V33.8436H377.088V21.9835Z" fill="white"></path><path d="M387.256 21.9835H390.021V33.8436H387.256V21.9835Z" fill="white"></path><path d="M394.887 24.4427H391.564V21.9835H400.948V24.4427H397.634V33.8436H394.887V24.4427Z" fill="white"></path><path d="M408.657 31.9163H403.712L402.945 33.8436H400.023L404.889 21.9748H407.479L412.345 33.8436H409.424L408.657 31.9163ZM407.75 29.6228L406.276 25.9165L406.197 25.5503H406.171L406.093 25.9165L404.619 29.6228H407.75Z" fill="white"></path><path d="M413.61 21.9835H416.043L419.732 27.0851V27.0764L423.473 21.9835H425.88V33.8436H423.124V26.3874L420.081 30.6518H419.383L416.374 26.3613V33.8436H413.61V21.9835Z" fill="white"></path><path d="M434.007 34.1139C433.118 34.1139 432.281 33.9511 431.496 33.6256C430.711 33.3 430.025 32.8581 429.438 32.3C428.856 31.7361 428.397 31.0762 428.06 30.3204C427.723 29.5647 427.554 28.7565 427.554 27.8961C427.554 27.0299 427.723 26.2217 428.06 25.4718C428.397 24.716 428.856 24.059 429.438 23.5009C430.025 22.937 430.711 22.4951 431.496 22.1754C432.281 21.8498 433.118 21.687 434.007 21.687C434.897 21.687 435.731 21.8498 436.51 22.1754C437.295 22.4951 437.978 22.937 438.56 23.5009C439.147 24.059 439.609 24.716 439.946 25.4718C440.283 26.2217 440.452 27.0299 440.452 27.8961C440.452 28.7565 440.283 29.5647 439.946 30.3204C439.609 31.0762 439.147 31.7361 438.56 32.3C437.978 32.8581 437.295 33.3 436.51 33.6256C435.731 33.9511 434.897 34.1139 434.007 34.1139ZM434.007 31.5849C434.519 31.5849 434.999 31.4948 435.446 31.3146C435.894 31.1286 436.284 30.8727 436.615 30.5472C436.952 30.2216 437.217 29.835 437.408 29.3873C437.6 28.9339 437.696 28.4397 437.696 27.9048C437.696 27.37 437.6 26.8758 437.408 26.4223C437.217 25.9688 436.952 25.5793 436.615 25.2538C436.284 24.9282 435.894 24.6753 435.446 24.4951C434.999 24.309 434.519 24.216 434.007 24.216C433.496 24.216 433.013 24.309 432.56 24.4951C432.112 24.6753 431.723 24.9282 431.391 25.2538C431.06 25.5793 430.798 25.9688 430.606 26.4223C430.415 26.8758 430.319 27.37 430.319 27.9048C430.319 28.4397 430.415 28.9339 430.606 29.3873C430.798 29.835 431.06 30.2216 431.391 30.5472C431.728 30.8727 432.121 31.1286 432.569 31.3146C433.016 31.4948 433.496 31.5849 434.007 31.5849Z" fill="white"></path><path d="M446.434 34.1401C445.527 34.1401 444.757 34.0238 444.123 33.7913C443.49 33.5587 442.975 33.2535 442.58 32.8756C442.184 32.4977 441.897 32.0733 441.716 31.6024C441.542 31.1256 441.455 30.6489 441.455 30.1722H444.219C444.219 30.6664 444.408 31.0646 444.786 31.3669C445.17 31.6692 445.716 31.8204 446.426 31.8204C447.199 31.8204 447.751 31.707 448.083 31.4803C448.42 31.2536 448.588 30.9164 448.588 30.4687C448.588 30.2652 448.536 30.0879 448.431 29.9367C448.327 29.7856 448.173 29.6519 447.969 29.5356C447.772 29.4193 447.524 29.3176 447.228 29.2304C446.931 29.1373 446.591 29.0472 446.208 28.96C445.876 28.8786 445.536 28.7885 445.187 28.6897C444.838 28.585 444.498 28.4629 444.167 28.3234C443.836 28.1839 443.522 28.0211 443.225 27.8351C442.934 27.649 442.679 27.431 442.458 27.181C442.243 26.9252 442.071 26.6345 441.943 26.3089C441.815 25.9776 441.751 25.6026 441.751 25.184C441.751 24.6666 441.844 24.1956 442.03 23.7712C442.222 23.341 442.507 22.9719 442.885 22.6637C443.269 22.3556 443.745 22.1172 444.315 21.9486C444.891 21.7742 445.562 21.687 446.33 21.687C447.109 21.687 447.786 21.7771 448.362 21.9574C448.943 22.1318 449.428 22.3818 449.818 22.7073C450.207 23.0271 450.498 23.4166 450.69 23.8759C450.882 24.3352 450.978 24.8497 450.978 25.4194H448.213C448.213 25.2508 448.181 25.0881 448.117 24.9311C448.053 24.7741 447.946 24.6346 447.795 24.5125C447.649 24.3846 447.452 24.2829 447.202 24.2073C446.958 24.1317 446.655 24.0939 446.295 24.0939C445.929 24.0939 445.629 24.1259 445.397 24.1898C445.164 24.2538 444.981 24.3381 444.847 24.4427C444.719 24.5474 444.632 24.6666 444.586 24.8003C444.539 24.934 444.516 25.0677 444.516 25.2014C444.516 25.3933 444.565 25.5619 444.664 25.7072C444.769 25.8526 444.929 25.9834 445.144 26.0997C445.359 26.2159 445.632 26.3206 445.963 26.4136C446.301 26.5066 446.702 26.5967 447.167 26.6839C447.76 26.806 448.312 26.963 448.824 27.1549C449.341 27.3467 449.789 27.5938 450.167 27.8961C450.55 28.1926 450.85 28.5531 451.065 28.9775C451.28 29.4019 451.388 29.9019 451.388 30.4774C451.388 31.0704 451.266 31.5966 451.021 32.0558C450.783 32.5093 450.446 32.8901 450.01 33.1983C449.574 33.5064 449.051 33.7389 448.44 33.8959C447.835 34.0587 447.167 34.1401 446.434 34.1401Z" fill="white"></path><path d="M464.111 24.4427H460.789V21.9835H470.172V24.4427H466.858V33.8436H464.111V24.4427Z" fill="white"></path><path d="M476.861 34.1139C475.971 34.1139 475.134 33.9511 474.349 33.6256C473.564 33.3 472.878 32.8581 472.291 32.3C471.71 31.7361 471.25 31.0762 470.913 30.3204C470.576 29.5647 470.407 28.7565 470.407 27.8961C470.407 27.0299 470.576 26.2217 470.913 25.4718C471.25 24.716 471.71 24.059 472.291 23.5009C472.878 22.937 473.564 22.4951 474.349 22.1754C475.134 21.8498 475.971 21.687 476.861 21.687C477.75 21.687 478.584 21.8498 479.363 22.1754C480.148 22.4951 480.831 22.937 481.413 23.5009C482 24.059 482.462 24.716 482.799 25.4718C483.137 26.2217 483.305 27.0299 483.305 27.8961C483.305 28.7565 483.137 29.5647 482.799 30.3204C482.462 31.0762 482 31.7361 481.413 32.3C480.831 32.8581 480.148 33.3 479.363 33.6256C478.584 33.9511 477.75 34.1139 476.861 34.1139ZM476.861 31.5849C477.372 31.5849 477.852 31.4948 478.3 31.3146C478.747 31.1286 479.137 30.8727 479.468 30.5472C479.805 30.2216 480.07 29.835 480.262 29.3873C480.454 28.9339 480.549 28.4397 480.549 27.9048C480.549 27.37 480.454 26.8758 480.262 26.4223C480.07 25.9688 479.805 25.5793 479.468 25.2538C479.137 24.9282 478.747 24.6753 478.3 24.4951C477.852 24.309 477.372 24.216 476.861 24.216C476.349 24.216 475.866 24.309 475.413 24.4951C474.965 24.6753 474.576 24.9282 474.244 25.2538C473.913 25.5793 473.651 25.9688 473.46 26.4223C473.268 26.8758 473.172 27.37 473.172 27.9048C473.172 28.4397 473.268 28.9339 473.46 29.3873C473.651 29.835 473.913 30.2216 474.244 30.5472C474.582 30.8727 474.974 31.1286 475.422 31.3146C475.869 31.4948 476.349 31.5849 476.861 31.5849Z" fill="white"></path><path d="M484.98 21.9835H489.785C490.738 21.9835 491.604 22.126 492.383 22.4108C493.168 22.6957 493.837 23.0968 494.389 23.6143C494.947 24.1317 495.377 24.7538 495.68 25.4805C495.988 26.2072 496.142 27.0153 496.142 27.9048C496.142 28.7943 495.991 29.6054 495.689 30.3379C495.386 31.0704 494.956 31.6954 494.398 32.2128C493.846 32.7302 493.18 33.1314 492.401 33.4163C491.628 33.7011 490.764 33.8436 489.811 33.8436H484.98V21.9835ZM489.715 31.3931C490.29 31.3931 490.802 31.3146 491.25 31.1576C491.703 31.0007 492.087 30.7739 492.401 30.4774C492.715 30.1809 492.953 29.8205 493.116 29.3961C493.279 28.9658 493.36 28.4804 493.36 27.9397C493.36 27.4107 493.282 26.931 493.125 26.5008C492.968 26.0648 492.735 25.6956 492.427 25.3933C492.119 25.0852 491.735 24.8497 491.276 24.6869C490.822 24.5183 490.299 24.434 489.706 24.434H487.709V31.3931H489.715Z" fill="white"></path><path d="M503.511 34.1139C502.621 34.1139 501.784 33.9511 500.999 33.6256C500.215 33.3 499.529 32.8581 498.941 32.3C498.36 31.7361 497.901 31.0762 497.563 30.3204C497.226 29.5647 497.058 28.7565 497.058 27.8961C497.058 27.0299 497.226 26.2217 497.563 25.4718C497.901 24.716 498.36 24.059 498.941 23.5009C499.529 22.937 500.215 22.4951 500.999 22.1754C501.784 21.8498 502.621 21.687 503.511 21.687C504.4 21.687 505.235 21.8498 506.014 22.1754C506.799 22.4951 507.482 22.937 508.063 23.5009C508.65 24.059 509.112 24.716 509.45 25.4718C509.787 26.2217 509.955 27.0299 509.955 27.8961C509.955 28.7565 509.787 29.5647 509.45 30.3204C509.112 31.0762 508.65 31.7361 508.063 32.3C507.482 32.8581 506.799 33.3 506.014 33.6256C505.235 33.9511 504.4 34.1139 503.511 34.1139ZM503.511 31.5849C504.023 31.5849 504.502 31.4948 504.95 31.3146C505.397 31.1286 505.787 30.8727 506.118 30.5472C506.456 30.2216 506.72 29.835 506.912 29.3873C507.104 28.9339 507.2 28.4397 507.2 27.9048C507.2 27.37 507.104 26.8758 506.912 26.4223C506.72 25.9688 506.456 25.5793 506.118 25.2538C505.787 24.9282 505.397 24.6753 504.95 24.4951C504.502 24.309 504.023 24.216 503.511 24.216C502.999 24.216 502.517 24.309 502.063 24.4951C501.616 24.6753 501.226 24.9282 500.895 25.2538C500.563 25.5793 500.302 25.9688 500.11 26.4223C499.918 26.8758 499.822 27.37 499.822 27.9048C499.822 28.4397 499.918 28.9339 500.11 29.3873C500.302 29.835 500.563 30.2216 500.895 30.5472C501.232 30.8727 501.624 31.1286 502.072 31.3146C502.52 31.4948 502.999 31.5849 503.511 31.5849Z" fill="white"></path><path d="M515.938 34.1401C515.031 34.1401 514.261 34.0238 513.627 33.7913C512.993 33.5587 512.479 33.2535 512.083 32.8756C511.688 32.4977 511.4 32.0733 511.22 31.6024C511.046 31.1256 510.958 30.6489 510.958 30.1722H513.723C513.723 30.6664 513.912 31.0646 514.29 31.3669C514.673 31.6692 515.22 31.8204 515.929 31.8204C516.702 31.8204 517.255 31.707 517.586 31.4803C517.923 31.2536 518.092 30.9164 518.092 30.4687C518.092 30.2652 518.04 30.0879 517.935 29.9367C517.83 29.7856 517.676 29.6519 517.473 29.5356C517.275 29.4193 517.028 29.3176 516.731 29.2304C516.435 29.1373 516.095 29.0472 515.711 28.96C515.38 28.8786 515.04 28.7885 514.691 28.6897C514.342 28.585 514.002 28.4629 513.67 28.3234C513.339 28.1839 513.025 28.0211 512.729 27.8351C512.438 27.649 512.182 27.431 511.961 27.181C511.746 26.9252 511.575 26.6345 511.447 26.3089C511.319 25.9776 511.255 25.6026 511.255 25.184C511.255 24.6666 511.348 24.1956 511.534 23.7712C511.726 23.341 512.011 22.9719 512.389 22.6637C512.772 22.3556 513.249 22.1172 513.819 21.9486C514.394 21.7742 515.066 21.687 515.833 21.687C516.612 21.687 517.29 21.7771 517.865 21.9574C518.446 22.1318 518.932 22.3818 519.321 22.7073C519.711 23.0271 520.002 23.4166 520.194 23.8759C520.385 24.3352 520.481 24.8497 520.481 25.4194H517.717C517.717 25.2508 517.685 25.0881 517.621 24.9311C517.557 24.7741 517.449 24.6346 517.298 24.5125C517.153 24.3846 516.955 24.2829 516.705 24.2073C516.461 24.1317 516.159 24.0939 515.798 24.0939C515.432 24.0939 515.133 24.1259 514.9 24.1898C514.668 24.2538 514.484 24.3381 514.351 24.4427C514.223 24.5474 514.136 24.6666 514.089 24.8003C514.043 24.934 514.019 25.0677 514.019 25.2014C514.019 25.3933 514.069 25.5619 514.168 25.7072C514.272 25.8526 514.432 25.9834 514.647 26.0997C514.862 26.2159 515.136 26.3206 515.467 26.4136C515.804 26.5066 516.205 26.5967 516.67 26.6839C517.263 26.806 517.816 26.963 518.327 27.1549C518.845 27.3467 519.292 27.5938 519.67 27.8961C520.054 28.1926 520.353 28.5531 520.568 28.9775C520.784 29.4019 520.891 29.9019 520.891 30.4774C520.891 31.0704 520.769 31.5966 520.525 32.0558C520.287 32.5093 519.949 32.8901 519.513 33.1983C519.077 33.5064 518.554 33.7389 517.944 33.8959C517.339 34.0587 516.67 34.1401 515.938 34.1401Z" fill="white"></path><path d="M357.78 60.1139C356.902 60.1139 356.077 59.9511 355.304 59.6256C354.536 59.3 353.865 58.8581 353.289 58.3C352.719 57.7361 352.269 57.0762 351.938 56.3204C351.606 55.5647 351.44 54.7565 351.44 53.8961C351.44 53.0299 351.606 52.2217 351.938 51.4718C352.269 50.716 352.719 50.059 353.289 49.5009C353.865 48.937 354.536 48.4951 355.304 48.1754C356.077 47.8498 356.902 47.687 357.78 47.687C358.402 47.687 359.033 47.7829 359.673 47.9748C360.318 48.1666 360.914 48.4631 361.46 48.8643C362.007 49.2654 362.475 49.78 362.864 50.4079C363.26 51.0299 363.521 51.7741 363.649 52.6403H360.833C360.728 52.2043 360.574 51.8351 360.37 51.5328C360.173 51.2247 359.937 50.9747 359.664 50.7828C359.391 50.5852 359.086 50.4427 358.748 50.3555C358.417 50.2625 358.068 50.216 357.702 50.216C357.225 50.216 356.775 50.3003 356.35 50.4689C355.926 50.6375 355.554 50.8817 355.234 51.2014C354.914 51.5212 354.661 51.9078 354.475 52.3613C354.295 52.8147 354.205 53.3293 354.205 53.9048C354.205 54.492 354.295 55.0153 354.475 55.4745C354.661 55.928 354.914 56.3117 355.234 56.6257C355.554 56.9396 355.926 57.178 356.35 57.3408C356.775 57.5035 357.225 57.5849 357.702 57.5849C358.068 57.5849 358.417 57.5413 358.748 57.4541C359.08 57.3611 359.382 57.2187 359.655 57.0268C359.929 56.835 360.164 56.5879 360.362 56.2856C360.565 55.9774 360.719 55.6054 360.824 55.1693H363.649C363.521 56.0298 363.263 56.7739 362.873 57.4018C362.484 58.0239 362.016 58.5355 361.469 58.9366C360.923 59.3378 360.327 59.6343 359.681 59.8261C359.042 60.018 358.408 60.1139 357.78 60.1139Z" fill="white"></path><path d="M372.065 57.9163H367.12L366.353 59.8436H363.431L368.297 47.9748H370.887L375.754 59.8436H372.832L372.065 57.9163ZM371.158 55.6228L369.684 51.9165L369.606 51.5503H369.579L369.501 51.9165L368.027 55.6228H371.158Z" fill="white"></path><path d="M377.018 47.9835H382.224C382.852 47.9835 383.428 48.0823 383.951 48.28C384.474 48.4719 384.925 48.7422 385.303 49.091C385.681 49.4399 385.974 49.8614 386.183 50.3555C386.399 50.8439 386.506 51.3846 386.506 51.9776C386.506 52.3787 386.454 52.7595 386.349 53.12C386.245 53.4746 386.093 53.8002 385.896 54.0967C385.698 54.3932 385.46 54.6548 385.181 54.8815C384.907 55.1083 384.599 55.2943 384.256 55.4397L386.785 59.8436H383.62L381.544 55.8757H379.783V59.8436H377.018V47.9835ZM382.111 53.5647C382.338 53.5647 382.55 53.5269 382.748 53.4514C382.951 53.37 383.125 53.2595 383.271 53.12C383.416 52.9804 383.529 52.8147 383.611 52.6229C383.698 52.4252 383.742 52.2101 383.742 51.9776C383.742 51.7683 383.698 51.5706 383.611 51.3846C383.529 51.1985 383.413 51.0357 383.262 50.8962C383.117 50.7567 382.945 50.6462 382.748 50.5648C382.55 50.4834 382.338 50.4427 382.111 50.4427H379.783V53.5647H382.111Z" fill="white"></path><path d="M390.648 50.4427H387.326V47.9835H396.709V50.4427H393.395V59.8436H390.648V50.4427Z" fill="white"></path><path d="M405.927 45.4022C405.758 45.8964 405.532 46.2888 405.247 46.5795C404.962 46.8702 404.61 47.0155 404.192 47.0155C403.971 47.0155 403.767 46.9894 403.581 46.937C403.401 46.8847 403.232 46.8266 403.075 46.7626C402.924 46.6929 402.788 46.6318 402.665 46.5795C402.543 46.5272 402.43 46.501 402.325 46.501C402.197 46.501 402.075 46.533 401.959 46.5969C401.843 46.6551 401.729 46.8004 401.619 47.033L400.756 46.3266C400.825 46.1057 400.918 45.9022 401.035 45.7161C401.151 45.5301 401.282 45.3731 401.427 45.2452C401.578 45.1115 401.744 45.0127 401.924 44.9487C402.104 44.879 402.299 44.8499 402.508 44.8615C402.712 44.8732 402.895 44.908 403.058 44.9662C403.221 45.0185 403.369 45.0766 403.503 45.1406C403.636 45.1987 403.761 45.254 403.878 45.3063C403.994 45.3528 404.11 45.376 404.226 45.376C404.378 45.376 404.523 45.3266 404.662 45.2278C404.802 45.1231 404.927 44.9458 405.037 44.6958L405.927 45.4022ZM403.398 60.1139C402.508 60.1139 401.671 59.9511 400.886 59.6256C400.102 59.3 399.416 58.8581 398.828 58.3C398.247 57.7361 397.788 57.0762 397.451 56.3204C397.113 55.5647 396.945 54.7565 396.945 53.8961C396.945 53.0299 397.113 52.2217 397.451 51.4718C397.788 50.716 398.247 50.059 398.828 49.5009C399.416 48.937 400.102 48.4951 400.886 48.1754C401.671 47.8498 402.508 47.687 403.398 47.687C404.288 47.687 405.122 47.8498 405.901 48.1754C406.686 48.4951 407.369 48.937 407.95 49.5009C408.537 50.059 409 50.716 409.337 51.4718C409.674 52.2217 409.843 53.0299 409.843 53.8961C409.843 54.7565 409.674 55.5647 409.337 56.3204C409 57.0762 408.537 57.7361 407.95 58.3C407.369 58.8581 406.686 59.3 405.901 59.6256C405.122 59.9511 404.288 60.1139 403.398 60.1139ZM403.398 57.5849C403.91 57.5849 404.389 57.4948 404.837 57.3146C405.285 57.1286 405.674 56.8728 406.005 56.5472C406.343 56.2216 406.607 55.835 406.799 55.3873C406.991 54.9339 407.087 54.4397 407.087 53.9048C407.087 53.37 406.991 52.8758 406.799 52.4223C406.607 51.9688 406.343 51.5793 406.005 51.2538C405.674 50.9282 405.285 50.6753 404.837 50.4951C404.389 50.309 403.91 50.216 403.398 50.216C402.886 50.216 402.404 50.309 401.95 50.4951C401.503 50.6753 401.113 50.9282 400.782 51.2538C400.45 51.5793 400.189 51.9688 399.997 52.4223C399.805 52.8758 399.709 53.37 399.709 53.9048C399.709 54.4397 399.805 54.9339 399.997 55.3873C400.189 55.835 400.45 56.2216 400.782 56.5472C401.119 56.8728 401.511 57.1286 401.959 57.3146C402.407 57.4948 402.886 57.5849 403.398 57.5849Z" fill="white"></path><path d="M411.517 47.9835H419.88V50.434H414.281V52.6752H419.086V54.9775H414.281V57.3844H419.958V59.8436H411.517V47.9835Z" fill="white"></path><path d="M425.993 60.1401C425.086 60.1401 424.316 60.0238 423.682 59.7913C423.049 59.5587 422.534 59.2535 422.139 58.8756C421.743 58.4977 421.456 58.0733 421.275 57.6024C421.101 57.1256 421.014 56.6489 421.014 56.1722H423.778C423.778 56.6664 423.967 57.0646 424.345 57.3669C424.729 57.6692 425.275 57.8204 425.984 57.8204C426.758 57.8204 427.31 57.707 427.641 57.4803C427.979 57.2535 428.147 56.9164 428.147 56.4687C428.147 56.2652 428.095 56.0879 427.99 55.9367C427.886 55.7856 427.731 55.6519 427.528 55.5356C427.33 55.4193 427.083 55.3176 426.787 55.2304C426.49 55.1373 426.15 55.0472 425.766 54.96C425.435 54.8786 425.095 54.7885 424.746 54.6897C424.397 54.585 424.057 54.4629 423.726 54.3234C423.394 54.1839 423.08 54.0211 422.784 53.8351C422.493 53.649 422.237 53.431 422.017 53.181C421.801 52.9252 421.63 52.6345 421.502 52.309C421.374 51.9776 421.31 51.6026 421.31 51.184C421.31 50.6666 421.403 50.1956 421.589 49.7712C421.781 49.341 422.066 48.9719 422.444 48.6637C422.828 48.3556 423.304 48.1172 423.874 47.9486C424.45 47.7742 425.121 47.687 425.889 47.687C426.668 47.687 427.345 47.7771 427.92 47.9574C428.502 48.1318 428.987 48.3818 429.377 48.7073C429.766 49.0271 430.057 49.4166 430.249 49.8759C430.441 50.3352 430.537 50.8497 430.537 51.4194H427.772C427.772 51.2508 427.74 51.0881 427.676 50.9311C427.612 50.7741 427.505 50.6346 427.354 50.5125C427.208 50.3846 427.011 50.2829 426.761 50.2073C426.516 50.1317 426.214 50.0939 425.854 50.0939C425.487 50.0939 425.188 50.1259 424.955 50.1898C424.723 50.2538 424.54 50.3381 424.406 50.4427C424.278 50.5474 424.191 50.6666 424.144 50.8003C424.098 50.934 424.075 51.0677 424.075 51.2014C424.075 51.3933 424.124 51.5619 424.223 51.7072C424.328 51.8526 424.487 51.9834 424.703 52.0997C424.918 52.2159 425.191 52.3206 425.522 52.4136C425.859 52.5066 426.261 52.5967 426.726 52.6839C427.319 52.806 427.871 52.963 428.383 53.1549C428.9 53.3467 429.348 53.5938 429.726 53.8961C430.109 54.1926 430.409 54.5531 430.624 54.9775C430.839 55.4019 430.947 55.9019 430.947 56.4774C430.947 57.0704 430.824 57.5966 430.58 58.0559C430.342 58.5093 430.005 58.8901 429.569 59.1983C429.133 59.5064 428.609 59.7389 427.999 59.8959C427.394 60.0587 426.726 60.1401 425.993 60.1401Z" fill="white"></path><path d="M436.946 47.9835H441.751C442.705 47.9835 443.571 48.1259 444.35 48.4108C445.135 48.6957 445.804 49.0968 446.356 49.6143C446.914 50.1317 447.344 50.7538 447.647 51.4805C447.955 52.2072 448.109 53.0153 448.109 53.9048C448.109 54.7943 447.958 55.6053 447.655 56.3379C447.353 57.0704 446.923 57.6954 446.365 58.2128C445.812 58.7302 445.147 59.1314 444.368 59.4163C443.594 59.7011 442.731 59.8436 441.778 59.8436H436.946V47.9835ZM441.682 57.3931C442.257 57.3931 442.769 57.3146 443.216 57.1576C443.67 57.0007 444.054 56.7739 444.368 56.4774C444.682 56.1809 444.92 55.8205 445.083 55.3961C445.245 54.9658 445.327 54.4804 445.327 53.9397C445.327 53.4107 445.248 52.931 445.091 52.5008C444.934 52.0648 444.702 51.6956 444.394 51.3933C444.086 51.0852 443.702 50.8497 443.243 50.6869C442.789 50.5183 442.266 50.434 441.673 50.434H439.676V57.3931H441.682Z" fill="white"></path><path d="M449.783 47.9835H458.146V50.434H452.548V52.6752H457.353V54.9775H452.548V57.3844H458.225V59.8436H449.783V47.9835Z" fill="white"></path><path d="M469.823 60.1139C468.945 60.1139 468.12 59.9511 467.346 59.6256C466.579 59.3 465.908 58.8581 465.332 58.3C464.762 57.7361 464.312 57.0762 463.98 56.3204C463.649 55.5647 463.483 54.7565 463.483 53.8961C463.483 53.0299 463.649 52.2217 463.98 51.4718C464.312 50.716 464.762 50.059 465.332 49.5009C465.908 48.937 466.579 48.4951 467.346 48.1754C468.12 47.8498 468.945 47.687 469.823 47.687C470.445 47.687 471.076 47.7829 471.715 47.9748C472.361 48.1666 472.957 48.4631 473.503 48.8643C474.05 49.2654 474.518 49.78 474.907 50.4079C475.303 51.0299 475.564 51.7741 475.692 52.6403H472.875C472.771 52.2043 472.617 51.8351 472.413 51.5328C472.215 51.2247 471.98 50.9747 471.707 50.7828C471.434 50.5852 471.128 50.4427 470.791 50.3555C470.46 50.2625 470.111 50.216 469.745 50.216C469.268 50.216 468.817 50.3003 468.393 50.4689C467.969 50.6375 467.596 50.8817 467.277 51.2014C466.957 51.5212 466.704 51.9078 466.518 52.3613C466.338 52.8147 466.248 53.3293 466.248 53.9048C466.248 54.492 466.338 55.0153 466.518 55.4745C466.704 55.928 466.957 56.3117 467.277 56.6257C467.596 56.9396 467.969 57.178 468.393 57.3408C468.817 57.5035 469.268 57.5849 469.745 57.5849C470.111 57.5849 470.46 57.5413 470.791 57.4541C471.122 57.3611 471.425 57.2187 471.698 57.0268C471.971 56.835 472.207 56.5879 472.404 56.2856C472.608 55.9774 472.762 55.6054 472.867 55.1693H475.692C475.564 56.0298 475.305 56.7739 474.916 57.4018C474.526 58.0239 474.058 58.5355 473.512 58.9366C472.965 59.3378 472.37 59.6343 471.724 59.8261C471.085 60.018 470.451 60.1139 469.823 60.1139Z" fill="white"></path><path d="M477.375 47.9835H482.581C483.209 47.9835 483.785 48.0823 484.308 48.28C484.831 48.4719 485.282 48.7422 485.66 49.091C486.038 49.4399 486.331 49.8614 486.541 50.3555C486.756 50.8439 486.863 51.3846 486.863 51.9776C486.863 52.3787 486.811 52.7595 486.706 53.12C486.602 53.4746 486.45 53.8002 486.253 54.0967C486.055 54.3932 485.817 54.6548 485.538 54.8815C485.264 55.1083 484.956 55.2943 484.613 55.4397L487.142 59.8436H483.977L481.901 55.8757H480.14V59.8436H477.375V47.9835ZM482.468 53.5647C482.695 53.5647 482.907 53.5269 483.105 53.4514C483.308 53.37 483.483 53.2595 483.628 53.12C483.773 52.9804 483.887 52.8147 483.968 52.6229C484.055 52.4252 484.099 52.2101 484.099 51.9776C484.099 51.7683 484.055 51.5706 483.968 51.3846C483.887 51.1985 483.77 51.0357 483.619 50.8962C483.474 50.7567 483.302 50.6462 483.105 50.5648C482.907 50.4834 482.695 50.4427 482.468 50.4427H480.14V53.5647H482.468Z" fill="white"></path><path d="M493.587 44.3732L495.549 45.0621L493.822 47.1463H491.93L493.587 44.3732ZM488.572 47.9835H496.936V50.434H491.337V52.6752H496.142V54.9775H491.337V57.3844H497.014V59.8436H488.572V47.9835Z" fill="white"></path><path d="M498.741 47.9835H503.546C504.499 47.9835 505.366 48.1259 506.145 48.4108C506.929 48.6957 507.598 49.0968 508.15 49.6143C508.708 50.1317 509.139 50.7538 509.441 51.4805C509.749 52.2072 509.903 53.0153 509.903 53.9048C509.903 54.7943 509.752 55.6053 509.45 56.3379C509.147 57.0704 508.717 57.6954 508.159 58.2128C507.607 58.7302 506.941 59.1314 506.162 59.4163C505.389 59.7011 504.525 59.8436 503.572 59.8436H498.741V47.9835ZM503.476 57.3931C504.052 57.3931 504.563 57.3146 505.011 57.1576C505.464 57.0007 505.848 56.7739 506.162 56.4774C506.476 56.1809 506.714 55.8205 506.877 55.3961C507.04 54.9658 507.121 54.4804 507.121 53.9397C507.121 53.4107 507.043 52.931 506.886 52.5008C506.729 52.0648 506.496 51.6956 506.188 51.3933C505.88 51.0852 505.496 50.8497 505.037 50.6869C504.584 50.5183 504.06 50.434 503.467 50.434H501.47V57.3931H503.476Z" fill="white"></path><path d="M511.578 47.9835H514.342V59.8436H511.578V47.9835Z" fill="white"></path><path d="M519.208 50.4427H515.886V47.9835H525.269V50.4427H521.955V59.8436H519.208V50.4427Z" fill="white"></path><path d="M531.958 60.1139C531.068 60.1139 530.231 59.9511 529.446 59.6256C528.661 59.3 527.975 58.8581 527.388 58.3C526.807 57.7361 526.347 57.0762 526.01 56.3204C525.673 55.5647 525.504 54.7565 525.504 53.8961C525.504 53.0299 525.673 52.2217 526.01 51.4718C526.347 50.716 526.807 50.059 527.388 49.5009C527.975 48.937 528.661 48.4951 529.446 48.1754C530.231 47.8498 531.068 47.687 531.958 47.687C532.847 47.687 533.681 47.8498 534.46 48.1754C535.245 48.4951 535.928 48.937 536.51 49.5009C537.097 50.059 537.559 50.716 537.896 51.4718C538.234 52.2217 538.402 53.0299 538.402 53.8961C538.402 54.7565 538.234 55.5647 537.896 56.3204C537.559 57.0762 537.097 57.7361 536.51 58.3C535.928 58.8581 535.245 59.3 534.46 59.6256C533.681 59.9511 532.847 60.1139 531.958 60.1139ZM531.958 57.5849C532.469 57.5849 532.949 57.4948 533.397 57.3146C533.844 57.1286 534.234 56.8728 534.565 56.5472C534.902 56.2216 535.167 55.835 535.359 55.3873C535.551 54.9339 535.646 54.4397 535.646 53.9048C535.646 53.37 535.551 52.8758 535.359 52.4223C535.167 51.9688 534.902 51.5793 534.565 51.2538C534.234 50.9282 533.844 50.6753 533.397 50.4951C532.949 50.309 532.469 50.216 531.958 50.216C531.446 50.216 530.963 50.309 530.51 50.4951C530.062 50.6753 529.673 50.9282 529.341 51.2538C529.01 51.5793 528.748 51.9688 528.557 52.4223C528.365 52.8758 528.269 53.37 528.269 53.9048C528.269 54.4397 528.365 54.9339 528.557 55.3873C528.748 55.835 529.01 56.2216 529.341 56.5472C529.679 56.8728 530.071 57.1286 530.519 57.3146C530.966 57.4948 531.446 57.5849 531.958 57.5849Z" fill="white"></path><path d="M635.869 34.1139C634.992 34.1139 634.166 33.9511 633.393 33.6256C632.625 33.3 631.954 32.8581 631.378 32.3C630.809 31.7361 630.358 31.0762 630.027 30.3204C629.695 29.5647 629.53 28.7565 629.53 27.8961C629.53 27.0299 629.695 26.2217 630.027 25.4718C630.358 24.716 630.809 24.059 631.378 23.5009C631.954 22.937 632.625 22.4951 633.393 22.1754C634.166 21.8498 634.992 21.687 635.869 21.687C636.491 21.687 637.122 21.7829 637.762 21.9748C638.407 22.1666 639.003 22.4631 639.55 22.8643C640.096 23.2654 640.564 23.78 640.954 24.4079C641.349 25.0299 641.61 25.7741 641.738 26.6403H638.922C638.817 26.2043 638.663 25.8351 638.459 25.5328C638.262 25.2247 638.026 24.9747 637.753 24.7828C637.48 24.5852 637.175 24.4427 636.837 24.3555C636.506 24.2625 636.157 24.216 635.791 24.216C635.314 24.216 634.864 24.3003 634.439 24.4689C634.015 24.6375 633.643 24.8817 633.323 25.2014C633.003 25.5212 632.75 25.9078 632.564 26.3613C632.384 26.8147 632.294 27.3293 632.294 27.9048C632.294 28.492 632.384 29.0153 632.564 29.4745C632.75 29.928 633.003 30.3117 633.323 30.6257C633.643 30.9396 634.015 31.178 634.439 31.3408C634.864 31.5035 635.314 31.5849 635.791 31.5849C636.157 31.5849 636.506 31.5413 636.837 31.4541C637.169 31.3611 637.471 31.2187 637.744 31.0268C638.018 30.835 638.253 30.5879 638.451 30.2856C638.654 29.9774 638.808 29.6054 638.913 29.1693H641.738C641.61 30.0298 641.352 30.7739 640.962 31.4018C640.573 32.0239 640.105 32.5355 639.558 32.9366C639.012 33.3378 638.416 33.6343 637.771 33.8261C637.131 34.018 636.497 34.1139 635.869 34.1139Z" fill="white"></path><path d="M649.116 34.1139C648.227 34.1139 647.389 33.9511 646.605 33.6256C645.82 33.3 645.134 32.8581 644.546 32.3C643.965 31.7361 643.506 31.0762 643.169 30.3204C642.831 29.5647 642.663 28.7565 642.663 27.8961C642.663 27.0299 642.831 26.2217 643.169 25.4718C643.506 24.716 643.965 24.059 644.546 23.5009C645.134 22.937 645.82 22.4951 646.605 22.1754C647.389 21.8498 648.227 21.687 649.116 21.687C650.006 21.687 650.84 21.8498 651.619 22.1754C652.404 22.4951 653.087 22.937 653.668 23.5009C654.255 24.059 654.718 24.716 655.055 25.4718C655.392 26.2217 655.561 27.0299 655.561 27.8961C655.561 28.7565 655.392 29.5647 655.055 30.3204C654.718 31.0762 654.255 31.7361 653.668 32.3C653.087 32.8581 652.404 33.3 651.619 33.6256C650.84 33.9511 650.006 34.1139 649.116 34.1139ZM649.116 31.5849C649.628 31.5849 650.107 31.4948 650.555 31.3146C651.003 31.1286 651.392 30.8727 651.724 30.5472C652.061 30.2216 652.325 29.835 652.517 29.3873C652.709 28.9339 652.805 28.4397 652.805 27.9048C652.805 27.37 652.709 26.8758 652.517 26.4223C652.325 25.9688 652.061 25.5793 651.724 25.2538C651.392 24.9282 651.003 24.6753 650.555 24.4951C650.107 24.309 649.628 24.216 649.116 24.216C648.604 24.216 648.122 24.309 647.668 24.4951C647.221 24.6753 646.831 24.9282 646.5 25.2538C646.168 25.5793 645.907 25.9688 645.715 26.4223C645.523 26.8758 645.427 27.37 645.427 27.9048C645.427 28.4397 645.523 28.9339 645.715 29.3873C645.907 29.835 646.168 30.2216 646.5 30.5472C646.837 30.8727 647.229 31.1286 647.677 31.3146C648.125 31.4948 648.604 31.5849 649.116 31.5849Z" fill="white"></path><path d="M657.235 21.9835H659.668L663.357 27.0851V27.0764L667.098 21.9835H669.505V33.8436H666.749V26.3874L663.706 30.6518H663.008L659.999 26.3613V33.8436H657.235V21.9835Z" fill="white"></path><path d="M671.938 21.9835H677.074C677.696 21.9835 678.269 22.0853 678.792 22.2887C679.316 22.4922 679.766 22.7771 680.144 23.1434C680.522 23.5096 680.816 23.9457 681.025 24.4515C681.24 24.9514 681.348 25.4979 681.348 26.0909C681.348 26.7304 681.243 27.3118 681.034 27.8351C680.824 28.3525 680.531 28.7972 680.153 29.1693C679.781 29.5356 679.333 29.8205 678.81 30.0239C678.292 30.2216 677.726 30.3204 677.109 30.3204H674.702V33.8436H671.938V21.9835ZM676.961 27.8699C677.188 27.8699 677.397 27.8263 677.589 27.7391C677.787 27.6461 677.958 27.5211 678.103 27.3641C678.255 27.2014 678.371 27.0124 678.452 26.7973C678.539 26.5764 678.583 26.3409 678.583 26.0909C678.583 25.8816 678.539 25.6782 678.452 25.4805C678.371 25.2828 678.258 25.1084 678.112 24.9573C677.967 24.8003 677.795 24.6753 677.598 24.5823C677.4 24.4892 677.188 24.4427 676.961 24.4427H674.702V27.8699H676.961Z" fill="white"></path><path d="M682.769 21.9835H687.975C688.603 21.9835 689.179 22.0823 689.702 22.28C690.225 22.4719 690.676 22.7422 691.054 23.091C691.431 23.4399 691.725 23.8614 691.934 24.3555C692.149 24.8439 692.257 25.3846 692.257 25.9776C692.257 26.3787 692.205 26.7595 692.1 27.12C691.995 27.4746 691.844 27.8002 691.647 28.0967C691.449 28.3932 691.211 28.6548 690.932 28.8815C690.658 29.1083 690.35 29.2943 690.007 29.4397L692.536 33.8436H689.371L687.295 29.8757H685.533V33.8436H682.769V21.9835ZM687.862 27.5647C688.089 27.5647 688.301 27.5269 688.498 27.4514C688.702 27.37 688.876 27.2595 689.022 27.12C689.167 26.9804 689.28 26.8147 689.362 26.6229C689.449 26.4252 689.493 26.2101 689.493 25.9776C689.493 25.7683 689.449 25.5706 689.362 25.3846C689.28 25.1985 689.164 25.0357 689.013 24.8962C688.868 24.7567 688.696 24.6462 688.498 24.5648C688.301 24.4834 688.089 24.4427 687.862 24.4427H685.533V27.5647H687.862Z" fill="white"></path><path d="M701.431 31.9163H696.487L695.719 33.8436H692.798L697.664 21.9748H700.254L705.12 33.8436H702.199L701.431 31.9163ZM700.524 29.6228L699.05 25.9165L698.972 25.5503H698.946L698.867 25.9165L697.394 29.6228H700.524Z" fill="white"></path><path d="M631.343 50.5648L629.346 51.3061L629.338 48.8992L631.823 47.9748H634.108V59.8436H631.343V50.5648Z" fill="white"></path><path d="M641.006 60.1314C640.111 60.1314 639.334 59.9657 638.677 59.6343C638.02 59.3029 637.477 58.8552 637.047 58.2913C636.622 57.7274 636.305 57.0733 636.096 56.3292C635.893 55.5792 635.791 54.7885 635.791 53.9571C635.791 53.0909 635.901 52.2799 636.122 51.5241C636.349 50.7625 636.68 50.0997 637.116 49.5358C637.552 48.966 638.093 48.5184 638.738 48.1928C639.39 47.8614 640.143 47.6957 640.997 47.6957C641.945 47.6957 642.75 47.8701 643.413 48.219C644.076 48.562 644.613 49.0242 645.026 49.6056C645.445 50.1811 645.747 50.8439 645.933 51.5939C646.125 52.338 646.221 53.1112 646.221 53.9135C646.221 54.7565 646.113 55.5559 645.898 56.3117C645.689 57.0617 645.369 57.7216 644.939 58.2913C644.509 58.8552 643.965 59.3029 643.308 59.6343C642.657 59.9657 641.89 60.1314 641.006 60.1314ZM641.006 57.6024C641.39 57.6024 641.733 57.5152 642.035 57.3408C642.337 57.1663 642.593 56.9193 642.802 56.5995C643.012 56.2797 643.171 55.8931 643.282 55.4397C643.398 54.9804 643.456 54.4717 643.456 53.9135C643.456 53.3612 643.401 52.8583 643.291 52.4049C643.18 51.9514 643.02 51.5648 642.811 51.245C642.602 50.9195 642.343 50.6695 642.035 50.4951C641.733 50.3148 641.384 50.2247 640.988 50.2247C640.622 50.2247 640.288 50.3119 639.986 50.4863C639.689 50.6607 639.433 50.9107 639.218 51.2363C639.009 51.5561 638.846 51.9456 638.73 52.4049C638.613 52.8583 638.555 53.3671 638.555 53.931C638.555 54.4891 638.611 54.9949 638.721 55.4484C638.837 55.9019 639 56.2885 639.209 56.6082C639.425 56.9222 639.683 57.1663 639.986 57.3408C640.288 57.5152 640.628 57.6024 641.006 57.6024Z" fill="white"></path><path d="M652.36 60.1314C651.465 60.1314 650.689 59.9657 650.032 59.6343C649.375 59.3029 648.831 58.8552 648.401 58.2913C647.977 57.7274 647.66 57.0733 647.45 56.3292C647.247 55.5792 647.145 54.7885 647.145 53.9571C647.145 53.0909 647.256 52.2799 647.477 51.5241C647.703 50.7625 648.035 50.0997 648.471 49.5358C648.907 48.966 649.447 48.5184 650.093 48.1928C650.744 47.8614 651.497 47.6957 652.351 47.6957C653.299 47.6957 654.104 47.8701 654.767 48.219C655.43 48.562 655.968 49.0242 656.38 49.6056C656.799 50.1811 657.101 50.8439 657.287 51.5939C657.479 52.338 657.575 53.1112 657.575 53.9135C657.575 54.7565 657.468 55.5559 657.252 56.3117C657.043 57.0617 656.723 57.7216 656.293 58.2913C655.863 58.8552 655.319 59.3029 654.662 59.6343C654.011 59.9657 653.244 60.1314 652.36 60.1314ZM652.36 57.6024C652.744 57.6024 653.087 57.5152 653.389 57.3408C653.691 57.1663 653.947 56.9193 654.157 56.5995C654.366 56.2797 654.526 55.8931 654.636 55.4397C654.752 54.9804 654.811 54.4717 654.811 53.9135C654.811 53.3612 654.755 52.8583 654.645 52.4049C654.534 51.9514 654.375 51.5648 654.165 51.245C653.956 50.9195 653.697 50.6695 653.389 50.4951C653.087 50.3148 652.738 50.2247 652.343 50.2247C651.976 50.2247 651.642 50.3119 651.34 50.4863C651.043 50.6607 650.788 50.9107 650.572 51.2363C650.363 51.5561 650.2 51.9456 650.084 52.4049C649.968 52.8583 649.91 53.3671 649.91 53.931C649.91 54.4891 649.965 54.9949 650.075 55.4484C650.192 55.9019 650.354 56.2885 650.564 56.6082C650.779 56.9222 651.037 57.1663 651.34 57.3408C651.642 57.5152 651.982 57.6024 652.36 57.6024Z" fill="white"></path><path d="M662.023 53.7827C661.563 53.7827 661.133 53.7072 660.732 53.556C660.337 53.399 659.991 53.1868 659.694 52.9194C659.403 52.6461 659.174 52.3264 659.005 51.9601C658.837 51.5939 658.752 51.1985 658.752 50.7741C658.752 50.3439 658.837 49.9457 659.005 49.5794C659.174 49.2131 659.403 48.8934 659.694 48.6201C659.991 48.3469 660.337 48.1347 660.732 47.9835C661.133 47.8265 661.566 47.7481 662.031 47.7481C662.496 47.7481 662.927 47.8236 663.322 47.9748C663.723 48.126 664.069 48.3382 664.36 48.6114C664.656 48.8788 664.886 49.1986 665.049 49.5707C665.217 49.9369 665.302 50.3352 665.302 50.7654C665.302 51.1898 665.217 51.588 665.049 51.9601C664.88 52.3264 664.648 52.6461 664.351 52.9194C664.055 53.1868 663.706 53.399 663.305 53.556C662.909 53.7072 662.482 53.7827 662.023 53.7827ZM668.485 48.001H670.961L663.653 59.861H661.22L668.485 48.001ZM662.04 51.9427C662.354 51.9427 662.604 51.8322 662.79 51.6113C662.976 51.3904 663.069 51.1142 663.069 50.7828C663.069 50.434 662.973 50.1433 662.781 49.9108C662.595 49.6782 662.345 49.5619 662.031 49.5619C661.717 49.5619 661.464 49.6753 661.273 49.9021C661.087 50.1288 660.994 50.4166 660.994 50.7654C660.994 51.1026 661.087 51.3846 661.273 51.6113C661.464 51.8322 661.72 51.9427 662.04 51.9427ZM669.88 60.0703C669.421 60.0703 668.993 59.9947 668.598 59.8436C668.203 59.6866 667.857 59.4744 667.56 59.207C667.27 58.9395 667.04 58.6227 666.871 58.2564C666.703 57.8902 666.618 57.4977 666.618 57.0791C666.618 56.6489 666.703 56.2507 666.871 55.8844C667.04 55.5123 667.27 55.1897 667.56 54.9164C667.857 54.6432 668.206 54.431 668.607 54.2798C669.008 54.1228 669.441 54.0444 669.906 54.0444C670.365 54.0444 670.793 54.1199 671.188 54.2711C671.589 54.4222 671.935 54.6345 672.226 54.9077C672.516 55.1751 672.746 55.4949 672.915 55.867C673.083 56.2332 673.168 56.6315 673.168 57.0617C673.168 57.4861 673.083 57.8814 672.915 58.2477C672.746 58.614 672.514 58.9337 672.217 59.207C671.926 59.4744 671.58 59.6866 671.179 59.8436C670.778 59.9947 670.345 60.0703 669.88 60.0703ZM669.906 58.2477C670.22 58.2477 670.47 58.1372 670.656 57.9163C670.848 57.6896 670.944 57.4105 670.944 57.0791C670.944 56.9047 670.918 56.7448 670.865 56.5995C670.819 56.4483 670.749 56.3175 670.656 56.2071C670.563 56.0966 670.453 56.0123 670.325 55.9542C670.197 55.8902 670.054 55.8582 669.897 55.8582C669.583 55.8582 669.33 55.9716 669.139 56.1984C668.953 56.4251 668.86 56.7129 668.86 57.0617C668.86 57.2245 668.883 57.3785 668.929 57.5239C668.982 57.6692 669.051 57.7971 669.139 57.9076C669.232 58.0122 669.342 58.0965 669.47 58.1605C669.604 58.2186 669.749 58.2477 669.906 58.2477Z" fill="white"></path><path d="M683.955 60.1401C683.048 60.1401 682.278 60.0238 681.644 59.7913C681.01 59.5587 680.496 59.2535 680.1 58.8756C679.705 58.4977 679.417 58.0733 679.237 57.6024C679.063 57.1256 678.976 56.6489 678.976 56.1722H681.74C681.74 56.6664 681.929 57.0646 682.307 57.3669C682.691 57.6692 683.237 57.8204 683.946 57.8204C684.72 57.8204 685.272 57.707 685.603 57.4803C685.94 57.2535 686.109 56.9164 686.109 56.4687C686.109 56.2652 686.057 56.0879 685.952 55.9367C685.847 55.7856 685.693 55.6519 685.49 55.5356C685.292 55.4193 685.045 55.3176 684.749 55.2304C684.452 55.1373 684.112 55.0472 683.728 54.96C683.397 54.8786 683.057 54.7885 682.708 54.6897C682.359 54.585 682.019 54.4629 681.688 54.3234C681.356 54.1839 681.042 54.0211 680.746 53.8351C680.455 53.649 680.199 53.431 679.978 53.181C679.763 52.9252 679.592 52.6345 679.464 52.309C679.336 51.9776 679.272 51.6026 679.272 51.184C679.272 50.6666 679.365 50.1956 679.551 49.7712C679.743 49.341 680.028 48.9719 680.406 48.6637C680.789 48.3556 681.266 48.1172 681.836 47.9486C682.411 47.7742 683.083 47.687 683.85 47.687C684.629 47.687 685.307 47.7771 685.882 47.9574C686.464 48.1318 686.949 48.3818 687.339 48.7073C687.728 49.0271 688.019 49.4166 688.211 49.8759C688.403 50.3352 688.498 50.8497 688.498 51.4194H685.734C685.734 51.2508 685.702 51.0881 685.638 50.9311C685.574 50.7741 685.467 50.6346 685.315 50.5125C685.17 50.3846 684.972 50.2829 684.722 50.2073C684.478 50.1317 684.176 50.0939 683.815 50.0939C683.449 50.0939 683.15 50.1259 682.917 50.1898C682.685 50.2538 682.502 50.3381 682.368 50.4427C682.24 50.5474 682.153 50.6666 682.106 50.8003C682.06 50.934 682.036 51.0677 682.036 51.2014C682.036 51.3933 682.086 51.5619 682.185 51.7072C682.289 51.8526 682.449 51.9834 682.664 52.0997C682.879 52.2159 683.153 52.3206 683.484 52.4136C683.821 52.5066 684.222 52.5967 684.688 52.6839C685.281 52.806 685.833 52.963 686.344 53.1549C686.862 53.3467 687.31 53.5938 687.687 53.8961C688.071 54.1926 688.371 54.5531 688.586 54.9775C688.801 55.4019 688.908 55.9019 688.908 56.4774C688.908 57.0704 688.786 57.5966 688.542 58.0559C688.304 58.5093 687.966 58.8901 687.53 59.1983C687.094 59.5064 686.571 59.7389 685.961 59.8959C685.356 60.0587 684.688 60.1401 683.955 60.1401Z" fill="white"></path><path d="M690.618 47.9835H698.981V50.434H693.382V52.6752H698.187V54.9775H693.382V57.3844H699.059V59.8436H690.618V47.9835Z" fill="white"></path><path d="M706.323 60.1139C705.463 60.1139 704.649 59.9511 703.882 59.6256C703.12 59.3 702.451 58.8581 701.876 58.3C701.306 57.7361 700.856 57.0762 700.524 56.3204C700.193 55.5647 700.027 54.7565 700.027 53.8961C700.027 53.0299 700.193 52.2217 700.524 51.4718C700.856 50.716 701.309 50.059 701.885 49.5009C702.46 48.937 703.135 48.4951 703.908 48.1754C704.681 47.8498 705.507 47.687 706.384 47.687C707.007 47.687 707.64 47.7858 708.286 47.9835C708.931 48.1754 709.527 48.4573 710.073 48.8294C710.626 49.2015 711.099 49.6608 711.495 50.2073C711.896 50.748 712.158 51.3671 712.28 52.0648H709.472C709.181 51.4834 708.765 51.0299 708.225 50.7044C707.69 50.3788 707.05 50.216 706.306 50.216C705.829 50.216 705.376 50.3003 704.946 50.4689C704.521 50.6375 704.149 50.8817 703.829 51.2014C703.51 51.5212 703.257 51.9078 703.071 52.3613C702.885 52.8147 702.792 53.3293 702.792 53.9048C702.792 54.492 702.885 55.0153 703.071 55.4745C703.257 55.928 703.51 56.3117 703.829 56.6257C704.149 56.9396 704.521 57.178 704.946 57.3408C705.376 57.5035 705.829 57.5849 706.306 57.5849C707.102 57.5849 707.771 57.4076 708.312 57.053C708.852 56.6925 709.207 56.1867 709.376 55.5356H706.201V53.3293H712.445C712.457 54.3699 712.326 55.3088 712.053 56.146C711.785 56.9832 711.387 57.6954 710.858 58.2826C710.335 58.8698 709.693 59.3232 708.931 59.643C708.169 59.9569 707.3 60.1139 706.323 60.1139Z" fill="white"></path><path d="M719.143 60.1139C718.404 60.1139 717.718 60.0035 717.085 59.7825C716.451 59.5558 715.899 59.2331 715.428 58.8145C714.963 58.396 714.596 57.8873 714.329 57.2884C714.062 56.6896 713.928 56.0152 713.928 55.2652V47.9835H716.684V55.0647C716.684 55.4251 716.736 55.7623 716.841 56.0763C716.951 56.3844 717.108 56.6518 717.311 56.8786C717.521 57.1053 717.777 57.2855 718.079 57.4192C718.387 57.5471 718.742 57.6111 719.143 57.6111C719.532 57.6111 719.878 57.5471 720.181 57.4192C720.483 57.2855 720.739 57.1053 720.948 56.8786C721.157 56.6518 721.314 56.3844 721.419 56.0763C721.529 55.7623 721.585 55.4251 721.585 55.0647V47.9835H724.349V55.2652C724.349 55.9687 724.224 56.6169 723.974 57.2099C723.73 57.803 723.381 58.3146 722.928 58.7448C722.474 59.175 721.925 59.5122 721.279 59.7564C720.64 59.9947 719.928 60.1139 719.143 60.1139Z" fill="white"></path><path d="M726.599 47.9835H731.805C732.433 47.9835 733.009 48.0823 733.532 48.28C734.055 48.4719 734.506 48.7422 734.884 49.091C735.261 49.4399 735.555 49.8614 735.764 50.3555C735.979 50.8439 736.087 51.3846 736.087 51.9776C736.087 52.3787 736.035 52.7595 735.93 53.12C735.825 53.4746 735.674 53.8002 735.477 54.0967C735.279 54.3932 735.04 54.6548 734.761 54.8815C734.488 55.1083 734.18 55.2943 733.837 55.4397L736.366 59.8436H733.2L731.125 55.8757H729.363V59.8436H726.599V47.9835ZM731.692 53.5647C731.919 53.5647 732.131 53.5269 732.328 53.4514C732.532 53.37 732.706 53.2595 732.852 53.12C732.997 52.9804 733.11 52.8147 733.192 52.6229C733.279 52.4252 733.323 52.2101 733.323 51.9776C733.323 51.7683 733.279 51.5706 733.192 51.3846C733.11 51.1985 732.994 51.0357 732.843 50.8962C732.698 50.7567 732.526 50.6462 732.328 50.5648C732.131 50.4834 731.919 50.4427 731.692 50.4427H729.363V53.5647H731.692Z" fill="white"></path><path d="M745.261 57.9163H740.316L739.549 59.8436H736.628L741.494 47.9748H744.084L748.95 59.8436H746.028L745.261 57.9163ZM744.354 55.6228L742.88 51.9165L742.802 51.5503H742.776L742.697 51.9165L741.223 55.6228H744.354Z" fill="white"></path><path d="M280.996 27.5433H288.308L311.182 3.23236C314.111 0.119636 318.892 0.119635 321.82 3.23147L337.992 20.4193C340.921 23.5311 340.921 28.614 337.992 31.7268L330.125 40.0874V59.8459C330.125 64.2467 326.744 67.8411 322.602 67.8411H280.996C276.854 67.8411 273.473 64.2467 273.473 59.8459V35.5394C273.473 31.1377 276.854 27.5433 280.996 27.5433ZM319.643 27.5433L329.792 16.7566L319.444 5.75873C317.828 4.04136 315.174 4.04136 313.559 5.75784L293.062 27.5433H319.643ZM336.55 24.4776L329.386 32.0922C329.797 32.9979 330.05 33.9968 330.111 35.0497L335.615 29.2004C336.794 27.947 337.128 26.0823 336.55 24.4776ZM327.275 29.2829L334.426 21.6825L332.169 19.283L324.221 27.7305C325.355 27.9975 326.396 28.5377 327.275 29.2829ZM287.698 37.553V43.3314H289.574V37.553H287.698ZM284.337 43.3314V37.553H282.248V43.3314H284.337ZM292.936 37.553V43.3314H295.024V37.553H292.936ZM280.568 33.9799H296.705C297.633 33.9799 298.386 34.78 298.386 35.7665V45.1179C298.386 46.1044 297.633 46.9045 296.705 46.9045C291.326 46.9045 285.947 46.9045 280.568 46.9045C279.639 46.9045 278.887 46.1044 278.887 45.1179V35.7665C278.887 34.78 279.639 33.9799 280.568 33.9799ZM326.406 61.6316H277.192C277.852 63.2008 279.328 64.268 280.996 64.268H322.602C324.27 64.268 325.746 63.2008 326.406 61.6316ZM276.834 51.0932H326.764V35.5394C326.764 33.1221 324.898 31.1165 322.602 31.1165H280.996C278.71 31.1165 276.834 33.1106 276.834 35.5394V51.0932ZM276.834 58.0594H326.764V54.6663H276.834V58.0594Z" fill="white"></path><path d="M607.904 53.3147H584.289C580.901 53.3147 577.908 51.047 576.997 47.7999L568.236 18.5981C567.816 17.0945 566.459 16.071 564.922 16.071H558.053C556.911 16.071 555.984 15.1441 555.984 14.0019C555.984 12.8598 556.911 11.9329 558.053 11.9329H564.922C568.31 11.9329 571.303 14.2006 572.214 17.4477L580.976 46.6522C581.395 48.153 582.752 49.1765 584.289 49.1765H607.907C609.361 49.1765 610.699 48.2164 611.157 46.8398L612.964 41.7526C613.35 40.6767 614.528 40.1111 615.607 40.4946C616.685 40.8781 617.248 42.0588 616.865 43.1375L615.071 48.1861C614.053 51.2373 611.171 53.3147 607.904 53.3147Z" fill="white"></path><path d="M581.503 27.1062H572.536C571.394 27.1062 570.467 26.1792 570.467 25.0371C570.467 23.895 571.394 22.968 572.536 22.968H581.503C582.645 22.968 583.572 23.895 583.572 25.0371C583.572 26.1792 582.645 27.1062 581.503 27.1062Z" fill="white"></path><path d="M586.33 67.1086C583.287 67.1086 580.813 64.634 580.813 61.591C580.813 58.5481 583.287 56.0735 586.33 56.0735C589.373 56.0735 591.848 58.5481 591.848 61.591C591.848 64.634 589.373 67.1086 586.33 67.1086ZM586.33 60.2116C585.572 60.2116 584.951 60.8296 584.951 61.591C584.951 62.3525 585.572 62.9704 586.33 62.9704C587.089 62.9704 587.71 62.3525 587.71 61.591C587.71 60.8296 587.089 60.2116 586.33 60.2116Z" fill="white"></path><path d="M605.642 67.1086C602.599 67.1086 600.124 64.634 600.124 61.591C600.124 58.5481 602.599 56.0735 605.642 56.0735C608.685 56.0735 611.16 58.5481 611.16 61.591C611.16 64.634 608.685 67.1086 605.642 67.1086ZM605.642 60.2116C604.883 60.2116 604.263 60.8296 604.263 61.591C604.263 62.3525 604.883 62.9704 605.642 62.9704C606.401 62.9704 607.021 62.3525 607.021 61.591C607.021 60.8296 606.401 60.2116 605.642 60.2116Z" fill="white"></path><path d="M605.642 39.5207C605.355 39.5207 605.071 39.4628 604.803 39.3442C604.163 39.06 589.089 32.2348 589.089 18.2394V7.40017C589.089 6.48977 589.682 5.68696 590.551 5.42212L605.035 0.988745C605.43 0.867358 605.854 0.867358 606.246 0.988745L620.73 5.42212C621.602 5.68696 622.195 6.48977 622.195 7.40017V18.2394C622.195 32.2348 607.121 39.06 606.481 39.3442C606.213 39.4628 605.929 39.5207 605.642 39.5207ZM593.227 8.9313V18.2394C593.227 27.8814 602.723 33.6114 605.639 35.1425C608.552 33.6031 618.056 27.8428 618.056 18.2394V8.9313L605.642 5.12969L593.227 8.9313Z" fill="white"></path><path d="M604.263 25.7265C603.714 25.7265 603.187 25.5086 602.8 25.1196L597.972 20.2917C597.164 19.4834 597.164 18.173 597.972 17.3646C598.781 16.5563 600.091 16.5563 600.9 17.3646L604.21 20.6752L611.714 12.5919C612.498 11.756 613.802 11.7091 614.641 12.4816C615.477 13.2596 615.524 14.57 614.749 15.4059L605.783 25.0617C605.396 25.4782 604.864 25.7155 604.301 25.7265C604.287 25.7265 604.276 25.7265 604.263 25.7265Z" fill="white"></path><path d="M36.281 23.0233H32.6142V16.2356C32.6142 11.8057 29.0231 8.21467 24.5933 8.21467C20.1634 8.2147 16.5722 11.8057 16.5722 16.2356V23.0233H12.9056V16.4649C12.9056 10.0099 18.1383 4.77728 24.5933 4.77725C31.0482 4.77725 36.281 10.0099 36.281 16.4649V23.0233ZM40.1605 16.4649C40.1605 7.86723 33.1907 0.897705 24.5933 0.897705C15.9957 0.897729 9.0261 7.86726 9.02609 16.4649V24.963L9.02676 25.0131C9.05333 26.0613 9.91131 26.9028 10.9659 26.9028H18.512L18.5621 26.9021C19.6102 26.8756 20.4517 26.0176 20.4517 24.963V16.2356C20.4517 13.9484 22.3059 12.0942 24.5933 12.0942C26.8805 12.0942 28.7347 13.9484 28.7347 16.2356V24.963L28.7354 25.0131C28.7619 26.0613 29.6199 26.9028 30.6745 26.9028H38.2207L38.2708 26.9021C39.319 26.8756 40.1605 26.0176 40.1605 24.963V16.4649Z" fill="white"></path><path d="M4.37839 26.9028H44.8081V63.2291H4.37839V26.9028ZM48.6877 26.2562C48.6877 24.4707 47.2402 23.0233 45.4546 23.0233H3.73177C1.94625 23.0233 0.498842 24.4707 0.49884 26.2562V63.8757C0.498857 65.6612 1.94626 67.1086 3.73177 67.1086H45.4546C47.2402 67.1086 48.6876 65.6612 48.6877 63.8757V26.2562Z" fill="white"></path><path d="M28.276 40.206C28.276 41.2527 27.8405 42.1951 27.1343 42.8693C26.695 43.2888 26.4775 43.8899 26.5467 44.4933L27.5922 53.6085H21.5943L22.6397 44.4933C22.7068 43.9087 22.5048 43.3264 22.0926 42.9092L22.0521 42.8693C21.346 42.1951 20.9106 41.2527 20.9106 40.206C20.9106 38.1722 22.5594 36.5235 24.5932 36.5235C26.6271 36.5235 28.2759 38.1722 28.276 40.206ZM32.1555 40.206C32.1555 36.0295 28.7696 32.644 24.5932 32.6439C20.4169 32.6439 17.031 36.0295 17.031 40.206C17.031 41.9917 17.6525 43.6327 18.6853 44.9244L17.4921 55.3272C17.4291 55.8765 17.6036 56.4267 17.9717 56.8394C18.3397 57.2521 18.8664 57.488 19.4193 57.488H29.7673C30.3202 57.488 30.8468 57.2521 31.2149 56.8394C31.5829 56.4267 31.7573 55.8765 31.6943 55.3272L30.5011 44.9244C31.534 43.6327 32.1555 41.9917 32.1555 40.206Z" fill="white"></path></svg>