<svg xmlns="http://www.w3.org/2000/svg" width="259" height="47" viewBox="0 0 259 47" fill="none"><path fill-rule="evenodd" clip-rule="evenodd" d="M36.6677 0.302948C41.1271 1.33776 42.833 3.94538 44.9717 7.53445H36.6677V0.302948ZM10.6063 7.83583C11.4794 7.83583 12.1132 8.25729 12.1132 9.24226C12.1132 10.073 11.441 10.7468 10.6106 10.7492H1.50689C0.674569 10.7492 0 11.4241 0 12.256C0 13.0884 0.674569 13.7629 1.50689 13.7629H15.0689C15.9091 13.7629 16.5817 14.4371 16.5817 15.2698C16.5817 16.1021 15.9071 16.7767 15.0748 16.7767H1.50689C0.674569 16.7767 0 17.4513 0 18.2836C0 19.1159 0.674569 19.7905 1.50689 19.7905H4.82205V24.3112C4.82205 25.1435 5.49662 25.8181 6.32894 25.8181H9.35803C9.898 28.4779 12.2482 30.4392 15.0187 30.4392C17.7892 30.4392 20.1394 28.4779 20.6793 25.8181H35.9798C36.5197 28.4779 38.8699 30.4392 41.6404 30.4392C44.4109 30.4392 46.7611 28.4779 47.3011 25.8181H49.9283C50.7606 25.8181 51.4352 25.1435 51.4352 24.3112V15.2698C51.4352 10.8484 46.7717 10.5549 46.7674 10.5482H35.1608C34.3285 10.5482 33.6539 9.87366 33.6539 9.04134V0H6.32894C5.49662 0 4.82205 0.674569 4.82205 1.50689V4.82205H3.01378C2.18146 4.82205 1.50689 5.49662 1.50689 6.32894C1.50689 7.16126 2.18146 7.83583 3.01378 7.83583H10.6063ZM43.5939 22.7093C44.6726 23.7881 44.6726 25.5379 43.5939 26.6166C41.8586 28.3519 38.8778 27.1174 38.8778 24.6628C38.8778 22.2086 41.8586 20.974 43.5939 22.7093ZM16.9721 22.7093C18.0509 23.7881 18.0509 25.5379 16.9721 26.6166C15.2369 28.3519 12.256 27.1174 12.256 24.6628C12.256 22.2086 15.2369 20.974 16.9721 22.7093Z" fill="#F6F6F6"></path><path d="M85.1466 8.39614H75.8373V13.0889H84.0559V16.3864H75.8373V22.8548H71.728V5.09856H85.1466V8.39614Z" fill="#F6F6F6"></path><path d="M103.655 22.8548H99.2418L95.8174 17.9084H92.0379V22.8548H87.9286V5.09856H95.6145C100.358 5.09856 103.326 7.55906 103.326 11.5415C103.326 14.205 101.981 16.1581 99.673 17.1474L103.655 22.8548ZM99.1657 11.5415C99.1657 9.58834 97.8974 8.44687 95.3862 8.44687H92.0379V14.6362H95.3862C97.8974 14.6362 99.1657 13.4693 99.1657 11.5415Z" fill="#F6F6F6"></path><path d="M110.665 19.5572H120.33V22.8548H106.581V5.09856H120V8.39614H110.665V12.2518H118.909V15.4479H110.665V19.5572Z" fill="#F6F6F6"></path><path d="M127.278 22.8548V8.44687H121.596V5.09856H137.069V8.44687H131.387V22.8548H127.278Z" fill="#F6F6F6"></path><path d="M143.364 19.5572H153.028V22.8548H139.28V5.09856H152.698V8.39614H143.364V12.2518H151.608V15.4479H143.364V19.5572Z" fill="#F6F6F6"></path><path d="M175.48 18.8977V13.6976H179.234V20.9016C177.281 22.3728 174.592 23.1591 172.055 23.1591C166.475 23.1591 162.365 19.3289 162.365 13.9767C162.365 8.62444 166.475 4.79417 172.131 4.79417C175.251 4.79417 177.839 5.85954 179.564 7.86346L176.926 10.2986C175.632 8.92883 174.135 8.29468 172.334 8.29468C168.885 8.29468 166.525 10.603 166.525 13.9767C166.525 17.2996 168.885 19.6586 172.284 19.6586C173.4 19.6586 174.44 19.4557 175.48 18.8977Z" fill="#F6F6F6"></path><path d="M198.778 22.8548H194.364L190.94 17.9084H187.16V22.8548H183.051V5.09856H190.737C195.48 5.09856 198.448 7.55906 198.448 11.5415C198.448 14.205 197.104 16.1581 194.795 17.1474L198.778 22.8548ZM194.288 11.5415C194.288 9.58834 193.02 8.44687 190.509 8.44687H187.16V14.6362H190.509C193.02 14.6362 194.288 13.4693 194.288 11.5415Z" fill="#F6F6F6"></path><path d="M214.691 0L210.1 3.6527H207.005L210.43 0H214.691ZM214.97 22.8548L213.398 19.0499H205.154L203.581 22.8548H199.37L207.284 5.09856H211.343L219.283 22.8548H214.97ZM206.473 15.9298H212.104L209.288 9.13176L206.473 15.9298Z" fill="#F6F6F6"></path><path d="M223.911 22.8548V8.44687H218.229V5.09856H233.702V8.44687H228.02V22.8548H223.911Z" fill="#F6F6F6"></path><path d="M235.913 22.8548V5.09856H240.023V22.8548H235.913Z" fill="#F6F6F6"></path><path d="M250.071 23.1591C247.255 23.1591 244.414 22.3221 242.841 21.1045L244.237 18.0099C245.733 19.1006 247.965 19.8616 250.096 19.8616C252.531 19.8616 253.521 19.0499 253.521 17.9591C253.521 14.6362 243.197 16.9191 243.197 10.324C243.197 7.30541 245.632 4.79417 250.68 4.79417C252.912 4.79417 255.195 5.32686 256.843 6.36686L255.575 9.48688C253.926 8.54834 252.227 8.09175 250.654 8.09175C248.219 8.09175 247.28 9.00493 247.28 10.121C247.28 13.3932 257.604 11.1357 257.604 17.6547C257.604 20.6226 255.144 23.1591 250.071 23.1591Z" fill="#F6F6F6"></path><path d="M76.7629 33.4532C80.1195 33.4532 82.1482 35.1499 82.1482 37.9533C82.1482 40.7566 80.1195 42.4533 76.7629 42.4533H73.5723V46.3632H71.728V33.4532H76.7629ZM76.7076 40.8488C79.0683 40.8488 80.3039 39.7975 80.3039 37.9533C80.3039 36.109 79.0683 35.0577 76.7076 35.0577H73.5723V40.8488H76.7076Z" fill="#F6F6F6"></path><path d="M93.855 46.3632L92.4349 43.1357H85.5741L84.154 46.3632H82.2544L88.1008 33.4532H89.9266L95.7915 46.3632H93.855ZM86.2196 41.6603H91.7894L89.0045 35.3344L86.2196 41.6603Z" fill="#F6F6F6"></path><path d="M108.359 46.3632H106.349L103.564 42.398C103.305 42.4164 103.029 42.4349 102.752 42.4349H99.5616V46.3632H97.7173V33.4532H102.752C106.109 33.4532 108.137 35.1499 108.137 37.9533C108.137 39.9451 107.105 41.3836 105.297 42.0291L108.359 46.3632ZM102.697 40.8672C105.058 40.8672 106.293 39.7975 106.293 37.9533C106.293 36.109 105.058 35.0577 102.697 35.0577H99.5616V40.8672H102.697Z" fill="#F6F6F6"></path><path d="M120.763 46.3632L119.343 43.1357H112.482L111.062 46.3632H109.162L115.009 33.4532H116.834L122.699 46.3632H120.763ZM113.127 41.6603H118.697L115.912 35.3344L113.127 41.6603Z" fill="#F6F6F6"></path><path d="M132.142 46.3632V35.0577H127.715V33.4532H138.394V35.0577H133.967V46.3632H132.142Z" fill="#F6F6F6"></path><path d="M146.05 46.5107C142.085 46.5107 139.171 43.689 139.171 39.9082C139.171 36.1274 142.085 33.3057 146.05 33.3057C149.979 33.3057 152.892 36.109 152.892 39.9082C152.892 43.7074 149.979 46.5107 146.05 46.5107ZM146.05 44.8693C148.909 44.8693 151.048 42.7668 151.048 39.9082C151.048 37.0496 148.909 34.9471 146.05 34.9471C143.155 34.9471 141.015 37.0496 141.015 39.9082C141.015 42.7668 143.155 44.8693 146.05 44.8693Z" fill="#F6F6F6"></path><path d="M155.711 46.3632V33.4532H161.152C165.302 33.4532 168.123 36.0721 168.123 39.9082C168.123 43.7443 165.302 46.3632 161.152 46.3632H155.711ZM157.556 44.7587H161.041C164.232 44.7587 166.279 42.8037 166.279 39.9082C166.279 37.0127 164.232 35.0577 161.041 35.0577H157.556V44.7587Z" fill="#F6F6F6"></path><path d="M176.776 46.5107C172.811 46.5107 169.897 43.689 169.897 39.9082C169.897 36.1274 172.811 33.3057 176.776 33.3057C180.705 33.3057 183.619 36.109 183.619 39.9082C183.619 43.7074 180.705 46.5107 176.776 46.5107ZM176.776 44.8693C179.635 44.8693 181.774 42.7668 181.774 39.9082C181.774 37.0496 179.635 34.9471 176.776 34.9471C173.881 34.9471 171.741 37.0496 171.741 39.9082C171.741 42.7668 173.881 44.8693 176.776 44.8693Z" fill="#F6F6F6"></path><path d="M200.077 39.6684C201.534 40.0742 202.493 41.1623 202.493 42.8775C202.493 45.0906 200.815 46.3632 197.55 46.3632H191.39V33.4532H197.181C200.151 33.4532 201.811 34.7073 201.811 36.7914C201.811 38.193 201.091 39.1705 200.077 39.6684ZM197.015 34.9471H193.235V39.0783H197.015C198.897 39.0783 199.966 38.3774 199.966 37.0127C199.966 35.6479 198.897 34.9471 197.015 34.9471ZM197.476 44.8693C199.524 44.8693 200.63 44.2238 200.63 42.73C200.63 41.2361 199.524 40.5721 197.476 40.5721H193.235V44.8693H197.476Z" fill="#F6F6F6"></path><path d="M215.99 46.3632H213.98L211.195 42.398C210.937 42.4164 210.66 42.4349 210.383 42.4349H207.193V46.3632H205.348V33.4532H210.383C213.74 33.4532 215.769 35.1499 215.769 37.9533C215.769 39.9451 214.736 41.3836 212.928 42.0291L215.99 46.3632ZM210.328 40.8672C212.689 40.8672 213.924 39.7975 213.924 37.9533C213.924 36.109 212.689 35.0577 210.328 35.0577H207.193V40.8672H210.328Z" fill="#F6F6F6"></path><path d="M228.394 46.3632L226.974 43.1357H220.113L218.693 46.3632H216.793L222.64 33.4532H224.466L230.33 46.3632H228.394ZM220.759 41.6603H226.328L223.544 35.3344L220.759 41.6603Z" fill="#F6F6F6"></path><path d="M236.019 46.5107C234.045 46.5107 232.109 45.8468 231.076 44.8878L231.758 43.4492C232.717 44.316 234.359 44.9431 236.019 44.9431C238.25 44.9431 239.209 44.0763 239.209 42.9513C239.209 39.7975 231.389 41.7894 231.389 36.9942C231.389 35.0024 232.939 33.3057 236.332 33.3057C237.844 33.3057 239.412 33.7114 240.482 34.4491L239.873 35.9245C238.748 35.2053 237.476 34.8733 236.332 34.8733C234.137 34.8733 233.197 35.7954 233.197 36.9205C233.197 40.0742 241.017 38.1008 241.017 42.8406C241.017 44.814 239.431 46.5107 236.019 46.5107Z" fill="#F6F6F6"></path><path d="M243.711 46.3632V33.4532H245.555V46.3632H243.711Z" fill="#F6F6F6"></path><path d="M249.42 46.3632V33.4532H251.265V44.7587H258.255V46.3632H249.42Z" fill="#F6F6F6"></path></svg>