<svg xmlns="http://www.w3.org/2000/svg" width="421" height="184" viewBox="0 0 421 184" fill="none"><path d="M75.0313 8.23056H81.9984C83.5276 8.23056 84.9191 8.46327 86.1729 8.9287C87.4267 9.39412 88.5001 10.0495 89.3929 10.8949C90.2858 11.7402 90.9744 12.7566 91.4588 13.9439C91.9527 15.1312 92.1997 16.4515 92.1997 17.9047C92.1997 19.358 91.9575 20.683 91.4731 21.8798C90.9887 23.0766 90.3 24.0977 89.4072 24.9431C88.5238 25.7884 87.46 26.4438 86.2157 26.9093C84.9714 27.3747 83.5846 27.6074 82.0554 27.6074H75.0313V8.23056ZM81.9984 25.5842C83.2237 25.5842 84.3255 25.4038 85.3038 25.0428C86.2822 24.6819 87.1133 24.1737 87.7972 23.5183C88.4906 22.8534 89.0177 22.0508 89.3787 21.1105C89.7491 20.1701 89.9343 19.1205 89.9343 17.9617C89.9343 16.8029 89.7491 15.7486 89.3787 14.7987C89.0082 13.8489 88.4763 13.0368 87.7829 12.3624C87.099 11.688 86.2632 11.1656 85.2753 10.7951C84.2875 10.4247 83.1762 10.2395 81.9414 10.2395H77.2397V25.5842H81.9984Z" fill="#E8E8E8"></path><path d="M108.179 19.9849C108.179 20.1084 108.175 20.2318 108.165 20.3553C108.165 20.4693 108.156 20.645 108.137 20.8825H95.9121C95.9786 21.6614 96.1638 22.369 96.4677 23.0054C96.7717 23.6323 97.1516 24.1642 97.6076 24.6011C98.073 25.0381 98.5954 25.3753 99.1748 25.6127C99.7637 25.8502 100.372 25.9689 100.998 25.9689C102.005 25.9689 102.879 25.7457 103.62 25.2993C104.37 24.8528 104.921 24.188 105.273 23.3046H107.695C107.486 23.9695 107.172 24.5869 106.755 25.1568C106.337 25.7267 105.838 26.2254 105.259 26.6528C104.679 27.0707 104.033 27.3984 103.321 27.6359C102.608 27.8828 101.849 28.0063 101.041 28.0063C100.006 28.0063 99.0418 27.8069 98.149 27.4079C97.2561 27.009 96.482 26.4628 95.8266 25.7694C95.1712 25.0761 94.6535 24.2687 94.2736 23.3473C93.9032 22.4165 93.7179 21.4192 93.7179 20.3553C93.7179 19.2915 93.9032 18.2942 94.2736 17.3633C94.6535 16.4325 95.1712 15.6251 95.8266 14.9412C96.482 14.2478 97.2561 13.7017 98.149 13.3027C99.0418 12.9038 100.006 12.7043 101.041 12.7043C102.077 12.7043 103.031 12.9038 103.905 13.3027C104.779 13.6922 105.529 14.2241 106.156 14.8985C106.793 15.5634 107.286 16.3375 107.638 17.2208C107.999 18.0947 108.179 19.016 108.179 19.9849ZM105.957 18.9448C105.919 18.3844 105.762 17.8525 105.487 17.3491C105.221 16.8457 104.864 16.404 104.418 16.024C103.972 15.6346 103.454 15.3259 102.865 15.0979C102.286 14.87 101.668 14.756 101.013 14.756C100.433 14.756 99.8682 14.851 99.3173 15.0409C98.7759 15.2214 98.2819 15.4921 97.8355 15.8531C97.3891 16.2045 97.0044 16.6414 96.6815 17.1639C96.368 17.6863 96.1448 18.2799 96.0118 18.9448H105.957Z" fill="#E8E8E8"></path><path d="M117.314 8.23056H125.52C126.451 8.23056 127.301 8.37779 128.071 8.67224C128.85 8.95719 129.519 9.36563 130.08 9.89754C130.65 10.42 131.091 11.0516 131.405 11.7925C131.718 12.5334 131.875 13.355 131.875 14.2573C131.875 14.9792 131.77 15.6488 131.561 16.2662C131.352 16.8741 131.058 17.4203 130.678 17.9047C130.298 18.3891 129.842 18.7976 129.31 19.13C128.778 19.4625 128.19 19.7094 127.544 19.8709L132.288 27.6074H129.695L125.278 20.1986C125.174 20.2081 125.074 20.2129 124.979 20.2129C124.884 20.2129 124.784 20.2129 124.68 20.2129H119.551V27.6074H117.314V8.23056ZM125.478 18.2894C126.076 18.2894 126.627 18.1944 127.13 18.0045C127.643 17.805 128.085 17.5295 128.455 17.1781C128.826 16.8267 129.116 16.404 129.325 15.9101C129.534 15.4161 129.638 14.87 129.638 14.2716C129.638 13.6827 129.529 13.146 129.31 12.6616C129.101 12.1677 128.807 11.745 128.427 11.3935C128.057 11.0326 127.615 10.7524 127.102 10.5529C126.589 10.3535 126.033 10.2537 125.435 10.2537H119.551V18.2894H125.478Z" fill="#E8E8E8"></path><path d="M148.624 22.2788C148.624 23.0861 148.481 23.8223 148.196 24.4872C147.912 25.1425 147.498 25.7125 146.957 26.1969C146.416 26.6813 145.751 27.0755 144.962 27.3794C144.183 27.6739 143.295 27.8638 142.298 27.9493V30.6849H140.218V27.9778C139.068 27.9113 138.066 27.6929 137.212 27.3224C136.366 26.952 135.663 26.4913 135.103 25.9404C134.552 25.3895 134.139 24.7769 133.863 24.1025C133.597 23.4186 133.464 22.7347 133.464 22.0508H135.716C135.716 22.5732 135.834 23.0766 136.072 23.5611C136.309 24.0455 136.656 24.4729 137.112 24.8433C137.568 25.2138 138.119 25.513 138.765 25.7409C139.42 25.9594 140.161 26.0686 140.987 26.0686C142.697 26.0686 144.017 25.7552 144.948 25.1283C145.888 24.4919 146.359 23.5421 146.359 22.2788C146.359 21.6709 146.221 21.1579 145.945 20.74C145.679 20.3221 145.309 19.9706 144.834 19.6857C144.369 19.4007 143.818 19.1728 143.181 19.0018C142.545 18.8308 141.856 18.6931 141.115 18.5886C140.583 18.5031 140.033 18.3986 139.463 18.2752C138.902 18.1517 138.356 17.9997 137.824 17.8192C137.302 17.6293 136.808 17.4013 136.342 17.1354C135.877 16.8694 135.469 16.5512 135.117 16.1808C134.766 15.8008 134.485 15.3639 134.276 14.87C134.077 14.3761 133.977 13.8061 133.977 13.1603C133.977 12.4859 134.091 11.84 134.319 11.2226C134.547 10.6052 134.908 10.0543 135.402 9.56984C135.905 9.08542 136.551 8.68649 137.34 8.37304C138.128 8.05959 139.087 7.87437 140.218 7.81738V5.01059H142.298V7.87437C143.2 7.97885 143.993 8.18782 144.677 8.50127C145.371 8.80522 145.95 9.18991 146.416 9.65533C146.881 10.1208 147.232 10.6574 147.47 11.2653C147.707 11.8732 147.826 12.5334 147.826 13.2457H145.575C145.575 12.7328 145.47 12.2674 145.261 11.8495C145.062 11.422 144.763 11.0564 144.364 10.7524C143.965 10.4484 143.476 10.2157 142.896 10.0543C142.317 9.88329 141.657 9.79781 140.916 9.79781C140.004 9.79781 139.244 9.89279 138.636 10.0828C138.028 10.2727 137.544 10.5244 137.183 10.8379C136.832 11.1513 136.58 11.5123 136.428 11.9207C136.285 12.3196 136.214 12.7328 136.214 13.1603C136.214 13.7017 136.338 14.1671 136.585 14.5565C136.841 14.946 137.207 15.2784 137.682 15.5539C138.157 15.8293 138.741 16.0573 139.434 16.2378C140.128 16.4182 140.916 16.5654 141.799 16.6794C142.578 16.7934 143.371 16.9644 144.179 17.1923C144.986 17.4108 145.717 17.7338 146.373 18.1612C147.038 18.5791 147.579 19.1205 147.997 19.7854C148.415 20.4503 148.624 21.2814 148.624 22.2788Z" fill="#E8E8E8"></path><path d="M156.525 28.0063C155.737 28.0063 154.939 27.8876 154.131 27.6501C153.334 27.4222 152.612 27.0517 151.966 26.5388C151.32 26.0164 150.793 25.3373 150.384 24.5014C149.976 23.6655 149.767 22.6492 149.757 21.4524H151.994C152.004 22.3073 152.156 23.0244 152.45 23.6038C152.745 24.1737 153.115 24.6344 153.562 24.9858C154.008 25.3278 154.497 25.5747 155.029 25.7267C155.57 25.8692 156.083 25.9404 156.568 25.9404C157.176 25.9404 157.75 25.8264 158.292 25.5985C158.843 25.3705 159.327 25.0571 159.745 24.6581C160.163 24.2592 160.495 23.7843 160.742 23.2334C160.989 22.6824 161.113 22.084 161.113 21.4382C161.113 20.8208 160.994 20.2556 160.757 19.7427C160.519 19.2203 160.177 18.7738 159.731 18.4034C159.294 18.0235 158.767 17.729 158.149 17.52C157.532 17.3111 156.839 17.2066 156.069 17.2066H154.203V16.0383L158.847 10.1825L158.919 10.097H150.712V8.23056H161.64V9.48436L156.867 15.3117L156.682 15.5539C157.698 15.5919 158.615 15.7486 159.432 16.024C160.258 16.29 160.961 16.6699 161.54 17.1639C162.12 17.6578 162.566 18.2657 162.88 18.9876C163.193 19.7094 163.35 20.5453 163.35 21.4951C163.35 22.407 163.179 23.2571 162.837 24.0455C162.495 24.8338 162.02 25.5225 161.412 26.1114C160.814 26.7003 160.096 27.1657 159.261 27.5077C158.425 27.8401 157.513 28.0063 156.525 28.0063Z" fill="#E8E8E8"></path><path d="M171.066 7.86012C172.044 7.86012 172.942 8.02635 173.758 8.35879C174.585 8.69124 175.297 9.14716 175.896 9.72657C176.494 10.2965 176.959 10.9709 177.292 11.7497C177.624 12.5286 177.791 13.3645 177.791 14.2573C177.791 14.7417 177.738 15.2072 177.634 15.6536C177.539 16.1 177.382 16.5607 177.164 17.0356C176.955 17.5105 176.684 18.0282 176.352 18.5886C176.029 19.149 175.634 19.7854 175.169 20.4978L170.581 27.6074H168.002L173.16 19.7427C172.78 19.9896 172.367 20.1844 171.921 20.3268C171.484 20.4693 171.023 20.5405 170.539 20.5405C169.712 20.5405 168.924 20.3838 168.173 20.0704C167.423 19.7474 166.763 19.3057 166.193 18.7453C165.633 18.1754 165.186 17.5105 164.854 16.7507C164.521 15.9813 164.355 15.1502 164.355 14.2573C164.355 13.3645 164.521 12.5286 164.854 11.7497C165.186 10.9709 165.652 10.2965 166.25 9.72657C166.848 9.14716 167.556 8.69124 168.373 8.35879C169.199 8.02635 170.097 7.86012 171.066 7.86012ZM171.066 9.92603C170.448 9.92603 169.874 10.0353 169.342 10.2537C168.819 10.4722 168.363 10.7761 167.974 11.1656C167.584 11.5455 167.276 12.0014 167.048 12.5334C166.829 13.0558 166.72 13.6257 166.72 14.2431C166.72 14.8605 166.829 15.4351 167.048 15.967C167.276 16.499 167.584 16.9596 167.974 17.3491C168.363 17.7385 168.819 18.0472 169.342 18.2752C169.874 18.4936 170.448 18.6029 171.066 18.6029C171.788 18.6029 172.419 18.4604 172.961 18.1754C173.502 17.8905 173.953 17.5343 174.314 17.1069C174.685 16.6699 174.96 16.195 175.141 15.6821C175.33 15.1692 175.425 14.6895 175.425 14.2431C175.425 13.6257 175.311 13.0558 175.084 12.5334C174.865 12.0014 174.561 11.5455 174.172 11.1656C173.782 10.7761 173.322 10.4722 172.79 10.2537C172.258 10.0353 171.683 9.92603 171.066 9.92603Z" fill="#E8E8E8"></path><path d="M179.309 26.2254L186.162 19.9706C186.751 19.4387 187.283 18.9353 187.758 18.4604C188.242 17.9855 188.66 17.52 189.011 17.0641C189.363 16.5987 189.634 16.1285 189.824 15.6536C190.014 15.1692 190.109 14.661 190.109 14.1291C190.109 13.5307 189.999 12.9845 189.781 12.4906C189.572 11.9872 189.282 11.5598 188.912 11.2083C188.541 10.8474 188.104 10.5719 187.601 10.382C187.107 10.1825 186.575 10.0828 186.005 10.0828C185.454 10.0828 184.918 10.1825 184.395 10.382C183.882 10.5719 183.426 10.8616 183.027 11.2511C182.629 11.6405 182.31 12.1344 182.073 12.7328C181.835 13.3312 181.717 14.0294 181.717 14.8272H179.494C179.494 13.8964 179.641 13.0178 179.936 12.1914C180.23 11.365 180.653 10.6432 181.204 10.0258C181.764 9.39887 182.443 8.90495 183.241 8.54401C184.039 8.18307 184.941 8.0026 185.948 8.0026C186.889 8.0026 187.748 8.15932 188.527 8.47277C189.315 8.78622 189.99 9.2184 190.55 9.76931C191.12 10.3107 191.562 10.9566 191.875 11.707C192.189 12.4479 192.345 13.2552 192.345 14.1291C192.345 14.794 192.246 15.4161 192.046 15.9955C191.856 16.5654 191.586 17.1164 191.234 17.6483C190.892 18.1707 190.479 18.6789 189.995 19.1728C189.51 19.6667 188.978 20.1701 188.399 20.683L182.643 25.8407L183.754 25.6412H192.63V27.6074H179.309V26.2254Z" fill="#E8E8E8"></path><path d="M201.651 13.1033H203.745V16.3945C203.992 15.8721 204.306 15.3876 204.686 14.9412C205.075 14.4948 205.517 14.1101 206.011 13.7872C206.505 13.4547 207.046 13.1935 207.635 13.0035C208.224 12.8136 208.846 12.7186 209.501 12.7186C210.527 12.7186 211.477 12.918 212.351 13.317C213.225 13.7159 213.98 14.2621 214.616 14.9555C215.262 15.6393 215.766 16.4467 216.126 17.3776C216.497 18.3084 216.682 19.301 216.682 20.3553C216.682 21.4192 216.497 22.4165 216.126 23.3473C215.766 24.2782 215.262 25.0903 214.616 25.7837C213.98 26.4676 213.225 27.009 212.351 27.4079C211.486 27.8069 210.546 28.0063 209.53 28.0063C208.912 28.0063 208.314 27.9208 207.735 27.7499C207.165 27.5884 206.628 27.3509 206.125 27.0375C205.631 26.724 205.184 26.3441 204.785 25.8977C204.386 25.4512 204.059 24.9526 203.802 24.4017L203.845 26.0117V32.5656H201.651V13.1033ZM209.174 25.9689C209.905 25.9689 210.594 25.8312 211.24 25.5557C211.885 25.2803 212.451 24.8956 212.935 24.4017C213.419 23.9077 213.804 23.3188 214.089 22.635C214.374 21.9416 214.516 21.1817 214.516 20.3553C214.516 19.5385 214.374 18.7881 214.089 18.1042C213.814 17.4203 213.434 16.8314 212.949 16.3375C212.465 15.8436 211.895 15.4589 211.24 15.1834C210.594 14.8985 209.9 14.756 209.159 14.756C208.418 14.756 207.725 14.9032 207.079 15.1977C206.433 15.4826 205.868 15.8768 205.384 16.3802C204.899 16.8836 204.515 17.4773 204.23 18.1612C203.954 18.8356 203.816 19.567 203.816 20.3553C203.816 21.1627 203.959 21.9083 204.244 22.5922C204.529 23.2761 204.914 23.8698 205.398 24.3732C205.882 24.8671 206.448 25.2565 207.093 25.5415C207.749 25.8264 208.442 25.9689 209.174 25.9689Z" fill="#E8E8E8"></path><path d="M225.68 28.0063C224.617 28.0063 223.624 27.8069 222.703 27.4079C221.791 27.009 220.998 26.4676 220.323 25.7837C219.658 25.0903 219.131 24.2782 218.742 23.3473C218.362 22.4165 218.172 21.4192 218.172 20.3553C218.172 19.2915 218.362 18.2942 218.742 17.3633C219.122 16.4325 219.649 15.6251 220.323 14.9412C220.998 14.2478 221.791 13.7017 222.703 13.3027C223.624 12.9038 224.617 12.7043 225.68 12.7043C226.754 12.7043 227.746 12.9038 228.658 13.3027C229.58 13.7017 230.377 14.2478 231.052 14.9412C231.726 15.6251 232.253 16.4325 232.633 17.3633C233.013 18.2942 233.203 19.2915 233.203 20.3553C233.203 21.4192 233.013 22.4165 232.633 23.3473C232.253 24.2782 231.726 25.0903 231.052 25.7837C230.377 26.4771 229.58 27.0232 228.658 27.4222C227.746 27.8116 226.754 28.0063 225.68 28.0063ZM225.695 25.9547C226.445 25.9547 227.143 25.8122 227.789 25.5272C228.444 25.2423 229.01 24.8528 229.485 24.3589C229.969 23.8555 230.349 23.2619 230.624 22.578C230.9 21.8941 231.038 21.1532 231.038 20.3553C231.038 19.5575 230.9 18.8213 230.624 18.1469C230.349 17.4631 229.969 16.8694 229.485 16.366C229.01 15.8626 228.444 15.4684 227.789 15.1834C227.143 14.8985 226.445 14.756 225.695 14.756C224.944 14.756 224.241 14.8985 223.586 15.1834C222.94 15.4684 222.375 15.8626 221.891 16.366C221.416 16.8694 221.04 17.4631 220.765 18.1469C220.49 18.8213 220.352 19.5575 220.352 20.3553C220.352 21.1532 220.49 21.8941 220.765 22.578C221.04 23.2619 221.416 23.8555 221.891 24.3589C222.375 24.8528 222.94 25.2423 223.586 25.5272C224.241 25.8122 224.944 25.9547 225.695 25.9547Z" fill="#E8E8E8"></path><path d="M235.947 13.1033H238.055V16.5227C238.416 15.4589 238.991 14.623 239.779 14.0151C240.577 13.4072 241.518 13.1033 242.6 13.1033H243.968V15.0267H242.714C242.068 15.0267 241.465 15.1549 240.905 15.4114C240.344 15.6678 239.86 16.043 239.452 16.537C239.043 17.0309 238.72 17.634 238.483 18.3464C238.255 19.0493 238.141 19.8519 238.141 20.7543V27.6074H235.947V13.1033Z" fill="#E8E8E8"></path><path d="M258.218 28.0063C257.22 28.0063 256.294 27.8069 255.439 27.4079C254.584 27.009 253.839 26.4676 253.202 25.7837C252.566 25.0903 252.067 24.2782 251.706 23.3473C251.345 22.4165 251.165 21.4192 251.165 20.3553C251.165 19.2915 251.345 18.2989 251.706 17.3776C252.067 16.4467 252.566 15.6393 253.202 14.9555C253.839 14.2621 254.584 13.7159 255.439 13.317C256.294 12.918 257.215 12.7186 258.203 12.7186C258.878 12.7186 259.514 12.8041 260.112 12.975C260.72 13.146 261.276 13.393 261.779 13.7159C262.292 14.0294 262.748 14.4141 263.147 14.87C263.546 15.3259 263.869 15.8341 264.116 16.3945V13.1033H266.196V27.6074H264.116V24.3447C263.869 24.9051 263.546 25.4132 263.147 25.8692C262.748 26.3156 262.292 26.7003 261.779 27.0232C261.276 27.3367 260.72 27.5789 260.112 27.7499C259.514 27.9208 258.882 28.0063 258.218 28.0063ZM258.688 25.9547C259.429 25.9547 260.122 25.8122 260.768 25.5272C261.423 25.2423 261.993 24.8481 262.478 24.3447C262.962 23.8413 263.342 23.2524 263.617 22.578C263.902 21.8941 264.045 21.1532 264.045 20.3553C264.045 19.567 263.902 18.8356 263.617 18.1612C263.342 17.4773 262.962 16.8836 262.478 16.3802C261.993 15.8768 261.423 15.4826 260.768 15.1977C260.122 14.9032 259.429 14.756 258.688 14.756C257.947 14.756 257.249 14.8985 256.593 15.1834C255.947 15.4589 255.382 15.8436 254.898 16.3375C254.413 16.8314 254.029 17.4203 253.744 18.1042C253.468 18.7881 253.331 19.5385 253.331 20.3553C253.331 21.1817 253.473 21.9416 253.758 22.635C254.043 23.3188 254.428 23.9077 254.912 24.4017C255.396 24.8956 255.962 25.2803 256.608 25.5557C257.263 25.8217 257.956 25.9547 258.688 25.9547Z" fill="#E8E8E8"></path><path d="M270.222 13.1033H272.316V16.3945C272.563 15.8721 272.877 15.3876 273.257 14.9412C273.646 14.4948 274.088 14.1101 274.582 13.7872C275.076 13.4547 275.617 13.1935 276.206 13.0035C276.795 12.8136 277.417 12.7186 278.073 12.7186C279.098 12.7186 280.048 12.918 280.922 13.317C281.796 13.7159 282.551 14.2621 283.187 14.9555C283.833 15.6393 284.337 16.4467 284.698 17.3776C285.068 18.3084 285.253 19.301 285.253 20.3553C285.253 21.4192 285.068 22.4165 284.698 23.3473C284.337 24.2782 283.833 25.0903 283.187 25.7837C282.551 26.4676 281.796 27.009 280.922 27.4079C280.058 27.8069 279.117 28.0063 278.101 28.0063C277.484 28.0063 276.885 27.9208 276.306 27.7499C275.736 27.5884 275.199 27.3509 274.696 27.0375C274.202 26.724 273.755 26.3441 273.357 25.8977C272.958 25.4512 272.63 24.9526 272.373 24.4017L272.416 26.0117V32.5656H270.222V13.1033ZM277.745 25.9689C278.476 25.9689 279.165 25.8312 279.811 25.5557C280.457 25.2803 281.022 24.8956 281.506 24.4017C281.991 23.9077 282.375 23.3188 282.66 22.635C282.945 21.9416 283.088 21.1817 283.088 20.3553C283.088 19.5385 282.945 18.7881 282.66 18.1042C282.385 17.4203 282.005 16.8314 281.52 16.3375C281.036 15.8436 280.466 15.4589 279.811 15.1834C279.165 14.8985 278.471 14.756 277.731 14.756C276.99 14.756 276.296 14.9032 275.65 15.1977C275.005 15.4826 274.439 15.8768 273.955 16.3802C273.471 16.8836 273.086 17.4773 272.801 18.1612C272.525 18.8356 272.388 19.567 272.388 20.3553C272.388 21.1627 272.53 21.9083 272.815 22.5922C273.1 23.2761 273.485 23.8698 273.969 24.3732C274.454 24.8671 275.019 25.2565 275.665 25.5415C276.32 25.8264 277.013 25.9689 277.745 25.9689Z" fill="#E8E8E8"></path><path d="M301.204 19.9849C301.204 20.1084 301.2 20.2318 301.19 20.3553C301.19 20.4693 301.181 20.645 301.162 20.8825H288.937C289.004 21.6614 289.189 22.369 289.493 23.0054C289.797 23.6323 290.177 24.1642 290.633 24.6011C291.098 25.0381 291.621 25.3753 292.2 25.6127C292.789 25.8502 293.397 25.9689 294.024 25.9689C295.03 25.9689 295.904 25.7457 296.645 25.2993C297.396 24.8528 297.947 24.188 298.298 23.3046H300.72C300.511 23.9695 300.198 24.5869 299.78 25.1568C299.362 25.7267 298.863 26.2254 298.284 26.6528C297.704 27.0707 297.058 27.3984 296.346 27.6359C295.634 27.8828 294.874 28.0063 294.066 28.0063C293.031 28.0063 292.067 27.8069 291.174 27.4079C290.281 27.009 289.507 26.4628 288.852 25.7694C288.196 25.0761 287.679 24.2687 287.299 23.3473C286.928 22.4165 286.743 21.4192 286.743 20.3553C286.743 19.2915 286.928 18.2942 287.299 17.3633C287.679 16.4325 288.196 15.6251 288.852 14.9412C289.507 14.2478 290.281 13.7017 291.174 13.3027C292.067 12.9038 293.031 12.7043 294.066 12.7043C295.102 12.7043 296.056 12.9038 296.93 13.3027C297.804 13.6922 298.554 14.2241 299.181 14.8985C299.818 15.5634 300.312 16.3375 300.663 17.2208C301.024 18.0947 301.204 19.016 301.204 19.9849ZM298.982 18.9448C298.944 18.3844 298.787 17.8525 298.512 17.3491C298.246 16.8457 297.889 16.404 297.443 16.024C296.997 15.6346 296.479 15.3259 295.89 15.0979C295.311 14.87 294.693 14.756 294.038 14.756C293.458 14.756 292.893 14.851 292.342 15.0409C291.801 15.2214 291.307 15.4921 290.861 15.8531C290.414 16.2045 290.03 16.6414 289.707 17.1639C289.393 17.6863 289.17 18.2799 289.037 18.9448H298.982Z" fill="#E8E8E8"></path><path d="M303.692 13.1033H305.786V16.0668C305.995 15.5824 306.275 15.1359 306.627 14.7275C306.987 14.3096 307.405 13.9534 307.88 13.6589C308.355 13.355 308.878 13.1223 309.448 12.9608C310.018 12.7898 310.616 12.7043 311.243 12.7043C313.18 12.7043 314.648 13.2885 315.645 14.4568C316.643 15.6251 317.141 17.3871 317.141 19.7427V27.6074H314.961V19.7712C314.961 18.8973 314.862 18.1469 314.662 17.52C314.472 16.8836 314.192 16.3612 313.822 15.9528C313.461 15.5349 313.014 15.2309 312.482 15.0409C311.96 14.8415 311.366 14.7417 310.701 14.7417C310.074 14.7417 309.467 14.8652 308.878 15.1122C308.298 15.3496 307.785 15.6916 307.339 16.138C306.902 16.5844 306.551 17.1306 306.285 17.7765C306.019 18.4129 305.886 19.1253 305.886 19.9137V27.6074H303.692V13.1033Z" fill="#E8E8E8"></path><path d="M326.752 28.0063C325.755 28.0063 324.829 27.8069 323.974 27.4079C323.119 27.009 322.373 26.4676 321.737 25.7837C321.101 25.0903 320.602 24.2782 320.241 23.3473C319.88 22.4165 319.7 21.4192 319.7 20.3553C319.7 19.2915 319.88 18.2989 320.241 17.3776C320.602 16.4467 321.101 15.6393 321.737 14.9555C322.373 14.2621 323.119 13.7159 323.974 13.317C324.829 12.918 325.75 12.7186 326.738 12.7186C327.412 12.7186 328.049 12.8041 328.647 12.975C329.255 13.146 329.811 13.393 330.314 13.7159C330.827 14.0294 331.283 14.4141 331.682 14.87C332.081 15.3259 332.404 15.8341 332.651 16.3945V13.1033H334.731V27.6074H332.651V24.3447C332.404 24.9051 332.081 25.4132 331.682 25.8692C331.283 26.3156 330.827 26.7003 330.314 27.0232C329.811 27.3367 329.255 27.5789 328.647 27.7499C328.049 27.9208 327.417 28.0063 326.752 28.0063ZM327.222 25.9547C327.963 25.9547 328.657 25.8122 329.303 25.5272C329.958 25.2423 330.528 24.8481 331.012 24.3447C331.497 23.8413 331.877 23.2524 332.152 22.578C332.437 21.8941 332.579 21.1532 332.579 20.3553C332.579 19.567 332.437 18.8356 332.152 18.1612C331.877 17.4773 331.497 16.8836 331.012 16.3802C330.528 15.8768 329.958 15.4826 329.303 15.1977C328.657 14.9032 327.963 14.756 327.222 14.756C326.482 14.756 325.783 14.8985 325.128 15.1834C324.482 15.4589 323.917 15.8436 323.432 16.3375C322.948 16.8314 322.563 17.4203 322.278 18.1042C322.003 18.7881 321.865 19.5385 321.865 20.3553C321.865 21.1817 322.008 21.9416 322.293 22.635C322.578 23.3188 322.962 23.9077 323.447 24.4017C323.931 24.8956 324.496 25.2803 325.142 25.5557C325.798 25.8217 326.491 25.9547 327.222 25.9547Z" fill="#E8E8E8"></path><path d="M343.501 28.0063C342.504 28.0063 341.625 27.8733 340.865 27.6074C340.115 27.3319 339.488 26.971 338.985 26.5246C338.491 26.0781 338.116 25.5652 337.859 24.9858C337.612 24.4064 337.489 23.8128 337.489 23.2049H339.583C339.593 23.6228 339.683 24.017 339.854 24.3874C340.034 24.7484 340.291 25.0666 340.623 25.342C340.956 25.6175 341.364 25.8359 341.848 25.9974C342.333 26.1494 342.889 26.2254 343.515 26.2254C344.674 26.2254 345.553 25.9974 346.151 25.5415C346.75 25.0856 347.049 24.4634 347.049 23.675C347.049 23.2476 346.959 22.8914 346.778 22.6065C346.607 22.3215 346.356 22.084 346.023 21.8941C345.7 21.7041 345.301 21.5521 344.826 21.4382C344.361 21.3147 343.834 21.2054 343.245 21.1105C342.57 21.006 341.924 20.8635 341.307 20.683C340.699 20.5026 340.163 20.2556 339.697 19.9421C339.241 19.6192 338.875 19.2108 338.6 18.7168C338.325 18.2229 338.187 17.615 338.187 16.8931C338.187 16.3232 338.291 15.7866 338.5 15.2832C338.709 14.7702 339.027 14.3238 339.455 13.9439C339.882 13.5639 340.414 13.2647 341.051 13.0463C341.697 12.8183 342.447 12.7043 343.302 12.7043C344.128 12.7043 344.878 12.8136 345.553 13.032C346.237 13.241 346.816 13.5354 347.291 13.9154C347.776 14.2953 348.146 14.7465 348.402 15.2689C348.668 15.7913 348.801 16.3612 348.801 16.9786L346.65 16.9644C346.612 16.233 346.299 15.6488 345.71 15.2119C345.121 14.7655 344.318 14.5423 343.302 14.5423C342.798 14.5423 342.361 14.604 341.991 14.7275C341.621 14.851 341.312 15.0172 341.065 15.2262C340.818 15.4351 340.633 15.6821 340.509 15.967C340.395 16.2425 340.338 16.537 340.338 16.8504C340.338 17.2113 340.395 17.5248 340.509 17.7907C340.633 18.0472 340.832 18.2704 341.108 18.4604C341.383 18.6504 341.754 18.8166 342.219 18.9591C342.684 19.092 343.259 19.2155 343.943 19.3295C344.589 19.434 345.225 19.567 345.852 19.7284C346.488 19.8804 347.058 20.1084 347.562 20.4123C348.065 20.7163 348.474 21.12 348.787 21.6234C349.101 22.1268 349.257 22.7774 349.257 23.5753C349.257 24.2972 349.12 24.9383 348.844 25.4987C348.569 26.0496 348.174 26.5103 347.662 26.8808C347.158 27.2512 346.55 27.5314 345.838 27.7214C345.135 27.9113 344.356 28.0063 343.501 28.0063Z" fill="#E8E8E8"></path><path d="M11.5032 85.3524L2.86512 88.9054L2.83252 84.2767L12.2856 80.4303H16.6535V124.794H11.5032V85.3524Z" fill="#E8E8E8"></path><path d="M23.3867 121.632L39.0657 107.323C40.413 106.106 41.6299 104.954 42.7165 103.867C43.8248 102.781 44.781 101.716 45.585 100.673C46.3891 99.608 47.0084 98.5323 47.443 97.4458C47.8776 96.3375 48.0949 95.1749 48.0949 93.9579C48.0949 92.5889 47.845 91.3393 47.3452 90.2093C46.8671 89.0575 46.2043 88.0796 45.3568 87.2756C44.5093 86.4498 43.5097 85.8196 42.3579 85.385C41.2279 84.9286 40.011 84.7005 38.7071 84.7005C37.4467 84.7005 36.2189 84.9286 35.0237 85.385C33.8502 85.8196 32.8071 86.4824 31.8944 87.3734C30.9817 88.2644 30.2537 89.3944 29.7104 90.7634C29.1672 92.1325 28.8955 93.7297 28.8955 95.5552H23.8104C23.8104 93.4255 24.1473 91.4154 24.8209 89.5248C25.4946 87.6342 26.4616 85.9826 27.722 84.5701C29.0042 83.1358 30.5579 82.0058 32.3834 81.18C34.2088 80.3542 36.2732 79.9413 38.5767 79.9413C40.7281 79.9413 42.6948 80.2999 44.4767 81.017C46.2804 81.7342 47.8233 82.7229 49.1054 83.9833C50.4093 85.222 51.4198 86.6997 52.1369 88.4165C52.8541 90.1115 53.2126 91.9587 53.2126 93.9579C53.2126 95.4791 52.9844 96.9025 52.5281 98.2281C52.0935 99.5319 51.4741 100.792 50.6701 102.009C49.8878 103.205 48.9425 104.367 47.8342 105.497C46.7259 106.627 45.5089 107.779 44.1833 108.952L31.0143 120.752L33.5568 120.296H53.8646V124.794H23.3867V121.632Z" fill="#E8E8E8"></path><path d="M67.443 107.942L56.0016 91.611H61.9342L70.8657 104.552H70.8983L79.8298 91.611H85.7624L74.3209 107.942L86.0231 124.794H80.0253L70.8331 111.495L61.6408 124.794H55.7734L67.443 107.942Z" fill="#E8E8E8"></path><path d="M105.804 61.6384H134.155C137.574 61.6384 140.708 62.1766 143.558 63.253C146.407 64.2978 148.861 65.7699 150.919 67.6695C152.976 69.569 154.575 71.8643 155.715 74.5553C156.886 77.2147 157.472 80.159 157.472 83.3882C157.472 85.5727 157.187 87.6463 156.617 89.6092C156.047 91.5404 155.224 93.3133 154.148 94.9279C153.071 96.5425 151.773 97.9672 150.254 99.2019C148.766 100.437 147.088 101.45 145.22 102.241L158.992 126.223H141.753L130.451 104.616H120.858V126.223H105.804V61.6384ZM133.538 92.0311C134.772 92.0311 135.928 91.8253 137.004 91.4138C138.112 90.9705 139.062 90.369 139.854 89.6092C140.645 88.8494 141.262 87.9471 141.706 86.9024C142.181 85.826 142.418 84.6546 142.418 83.3882C142.418 82.2485 142.181 81.1721 141.706 80.159C141.262 79.1459 140.629 78.2594 139.806 77.4996C139.015 76.7398 138.081 76.1383 137.004 75.695C135.928 75.2518 134.772 75.0302 133.538 75.0302H120.858V92.0311H133.538Z" fill="white"></path><path d="M214.295 107.892C214.295 110.583 213.836 113.021 212.918 115.206C212 117.358 210.702 119.258 209.024 120.904C207.346 122.519 205.304 123.864 202.898 124.941C200.492 126.017 197.816 126.793 194.872 127.268V134.723H181.053V127.41C177.285 126.904 174.072 125.954 171.413 124.561C168.785 123.136 166.632 121.458 164.954 119.527C163.308 117.564 162.105 115.443 161.345 113.164C160.585 110.852 160.205 108.541 160.205 106.23H175.259C175.259 108.921 176.288 111.09 178.346 112.736C180.436 114.382 183.411 115.206 187.274 115.206C191.485 115.206 194.492 114.588 196.297 113.354C198.133 112.119 199.051 110.283 199.051 107.845C199.051 106.737 198.766 105.771 198.196 104.948C197.626 104.125 196.787 103.397 195.679 102.764C194.603 102.13 193.257 101.576 191.643 101.101C190.028 100.595 188.176 100.104 186.087 99.6293C184.282 99.1861 182.43 98.6954 180.53 98.1572C178.631 97.5873 176.779 96.9225 174.974 96.1626C173.17 95.4028 171.46 94.5164 169.846 93.5033C168.263 92.4902 166.87 91.303 165.667 89.9416C164.495 88.5486 163.561 86.9657 162.865 85.1928C162.168 83.3882 161.82 81.3462 161.82 79.0667C161.82 76.5973 162.216 74.3179 163.007 72.2284C163.799 70.1072 164.986 68.2393 166.569 66.6247C168.183 65.0101 170.194 63.6646 172.6 62.5882C175.006 61.5118 177.824 60.7678 181.053 60.3562V52.1407H194.872V60.7361C200.634 61.8442 204.94 64.1237 207.789 67.5745C210.638 70.9937 212.063 75.2518 212.063 80.3489H197.009C197.009 79.4308 196.835 78.5444 196.487 77.6896C196.138 76.8348 195.553 76.075 194.73 75.4101C193.938 74.7136 192.862 74.1596 191.5 73.748C190.171 73.3364 188.524 73.1307 186.562 73.1307C184.567 73.1307 182.937 73.3048 181.67 73.653C180.404 74.0013 179.407 74.4603 178.678 75.0302C177.982 75.6001 177.507 76.2491 177.254 76.9772C177 77.7054 176.874 78.4336 176.874 79.1617C176.874 80.2065 177.143 81.1246 177.681 81.9161C178.251 82.7075 179.122 83.4199 180.293 84.053C181.464 84.6862 182.952 85.2561 184.757 85.7626C186.593 86.2692 188.778 86.7599 191.31 87.2348C194.54 87.8996 197.547 88.7544 200.333 89.7992C203.151 90.8439 205.589 92.1894 207.646 93.8357C209.736 95.4503 211.366 97.4132 212.538 99.7243C213.709 102.035 214.295 104.758 214.295 107.892Z" fill="white"></path><path d="M226.431 75.695L215.556 79.7316L215.509 66.6247L229.043 61.5909H241.485V126.223H226.431V75.695Z" fill="white"></path><path d="M272.047 60.1663C275.814 60.1663 279.217 60.752 282.257 61.9234C285.296 63.0947 287.876 64.6935 289.997 66.7197C292.15 68.7459 293.796 71.1203 294.936 73.843C296.076 76.5657 296.646 79.4783 296.646 82.5809C296.646 84.2905 296.503 85.8893 296.218 87.3772C295.933 88.8652 295.474 90.4007 294.841 91.9836C294.24 93.5349 293.432 95.2129 292.419 97.0174C291.438 98.7903 290.235 100.817 288.81 103.096L274.279 126.223H256.993L272.427 102.621C271.73 102.969 270.986 103.254 270.195 103.476C269.435 103.666 268.675 103.761 267.915 103.761C265.256 103.761 262.691 103.254 260.222 102.241C257.784 101.196 255.616 99.7401 253.716 97.8722C251.817 96.0043 250.297 93.7724 249.157 91.1763C248.017 88.5803 247.448 85.7151 247.448 82.5809C247.448 79.4783 248.017 76.5657 249.157 73.843C250.329 71.1203 251.975 68.7459 254.096 66.7197C256.249 64.6935 258.829 63.0947 261.837 61.9234C264.876 60.752 268.279 60.1663 272.047 60.1663ZM271.999 73.7955C269.435 73.7955 267.377 74.587 265.826 76.1699C264.274 77.7212 263.499 79.7949 263.499 82.3909C263.499 83.689 263.705 84.8762 264.116 85.9526C264.528 87.029 265.098 87.9471 265.826 88.7069C266.554 89.4667 267.44 90.0683 268.485 90.5115C269.561 90.9231 270.733 91.1288 271.999 91.1288C273.392 91.1288 274.611 90.8914 275.656 90.4165C276.732 89.9416 277.635 89.3084 278.363 88.517C279.091 87.6938 279.645 86.7599 280.025 85.7151C280.405 84.6387 280.595 83.5307 280.595 82.3909C280.595 81.0929 280.389 79.9215 279.977 78.8768C279.566 77.8004 278.98 76.8981 278.22 76.1699C277.492 75.4101 276.59 74.8244 275.513 74.4129C274.469 74.0013 273.297 73.7955 271.999 73.7955Z" fill="white"></path><path d="M305.22 113.496H319.324L310.254 135.293H299.522L305.22 113.496Z" fill="white"></path><path d="M349.649 73.748H321.013V61.6384H367.504V69.1891L340.578 126.223H324.67L349.649 73.748Z" fill="white"></path><path d="M393.602 127.79C389.613 127.79 386.067 127.268 382.965 126.223C379.894 125.21 377.282 123.785 375.129 121.949C373.008 120.113 371.393 117.96 370.285 115.49C369.177 112.989 368.623 110.283 368.623 107.37C368.623 105.122 368.924 103.08 369.526 101.244C370.159 99.4077 370.982 97.8089 371.995 96.4476C373.04 95.0862 374.195 93.9623 375.462 93.0759C376.76 92.1578 378.074 91.4929 379.403 91.0814C378.359 90.7331 377.361 90.1316 376.411 89.2768C375.462 88.422 374.607 87.4089 373.847 86.2375C373.119 85.0661 372.533 83.7998 372.09 82.4384C371.678 81.0454 371.473 79.6366 371.473 78.2119C371.473 75.236 372.058 72.6241 373.23 70.3763C374.433 68.0969 376.032 66.1973 378.026 64.6777C380.052 63.1581 382.411 62.0183 385.102 61.2585C387.793 60.467 390.626 60.0713 393.602 60.0713C396.705 60.0713 399.586 60.4512 402.245 61.211C404.936 61.9708 407.263 63.1106 409.226 64.6302C411.221 66.1498 412.772 68.0494 413.88 70.3288C415.02 72.5766 415.59 75.1885 415.59 78.1645C415.59 79.5891 415.368 81.0138 414.925 82.4384C414.481 83.8314 413.896 85.1295 413.168 86.3325C412.439 87.5039 411.585 88.517 410.603 89.3718C409.622 90.2266 408.609 90.8122 407.564 91.1288C408.957 91.5087 410.303 92.1419 411.601 93.0284C412.899 93.9148 414.054 95.0546 415.067 96.4476C416.08 97.8089 416.888 99.4077 417.489 101.244C418.122 103.08 418.439 105.122 418.439 107.37C418.439 110.283 417.869 112.989 416.729 115.49C415.621 117.96 413.991 120.113 411.838 121.949C409.717 123.785 407.121 125.21 404.05 126.223C400.979 127.268 397.496 127.79 393.602 127.79ZM393.507 85.6677C394.615 85.6677 395.629 85.4935 396.547 85.1453C397.465 84.7654 398.24 84.2588 398.874 83.6256C399.538 82.9925 400.045 82.2643 400.393 81.4412C400.741 80.618 400.916 79.7632 400.916 78.8768C400.916 77.9903 400.726 77.1355 400.346 76.3124C399.997 75.4893 399.491 74.7769 398.826 74.1754C398.193 73.5422 397.417 73.0515 396.499 72.7033C395.613 72.3234 394.615 72.1334 393.507 72.1334C392.399 72.1334 391.386 72.3234 390.468 72.7033C389.55 73.0515 388.758 73.5422 388.094 74.1754C387.429 74.7769 386.906 75.4893 386.527 76.3124C386.178 77.1355 386.004 77.9903 386.004 78.8768C386.004 79.7632 386.178 80.618 386.527 81.4412C386.906 82.2643 387.413 82.9925 388.046 83.6256C388.711 84.2588 389.502 84.7654 390.421 85.1453C391.339 85.4935 392.368 85.6677 393.507 85.6677ZM393.507 115.633C394.932 115.633 396.262 115.411 397.496 114.968C398.763 114.525 399.855 113.908 400.773 113.116C401.723 112.325 402.467 111.391 403.005 110.314C403.543 109.206 403.812 108.019 403.812 106.753C403.812 105.423 403.543 104.22 403.005 103.143C402.467 102.035 401.723 101.086 400.773 100.294C399.855 99.5027 398.763 98.9011 397.496 98.4896C396.262 98.0463 394.932 97.8247 393.507 97.8247C392.083 97.8247 390.753 98.0463 389.518 98.4896C388.284 98.9011 387.191 99.5027 386.242 100.294C385.323 101.086 384.595 102.035 384.057 103.143C383.519 104.22 383.25 105.423 383.25 106.753C383.25 108.019 383.519 109.206 384.057 110.314C384.595 111.391 385.323 112.325 386.242 113.116C387.191 113.908 388.284 114.525 389.518 114.968C390.753 115.411 392.083 115.633 393.507 115.633Z" fill="white"></path><path d="M36.8036 179.237C35.7398 179.237 34.7472 179.038 33.8259 178.639C32.914 178.24 32.1209 177.699 31.4465 177.015C30.7816 176.321 30.2545 175.509 29.865 174.578C29.4851 173.648 29.2951 172.65 29.2951 171.586C29.2951 170.523 29.4851 169.525 29.865 168.594C30.245 167.664 30.7721 166.856 31.4465 166.172C32.1209 165.479 32.914 164.933 33.8259 164.534C34.7472 164.135 35.7398 163.935 36.8036 163.935C37.877 163.935 38.8696 164.135 39.7814 164.534C40.7028 164.933 41.5006 165.479 42.175 166.172C42.8494 166.856 43.3766 167.664 43.7565 168.594C44.1364 169.525 44.3264 170.523 44.3264 171.586C44.3264 172.65 44.1364 173.648 43.7565 174.578C43.3766 175.509 42.8494 176.321 42.175 177.015C41.5006 177.708 40.7028 178.254 39.7814 178.653C38.8696 179.043 37.877 179.237 36.8036 179.237ZM36.8179 177.186C37.5683 177.186 38.2664 177.043 38.9123 176.758C39.5677 176.473 40.1328 176.084 40.6078 175.59C41.0922 175.087 41.4721 174.493 41.7476 173.809C42.023 173.125 42.1608 172.384 42.1608 171.586C42.1608 170.789 42.023 170.052 41.7476 169.378C41.4721 168.694 41.0922 168.1 40.6078 167.597C40.1328 167.094 39.5677 166.699 38.9123 166.414C38.2664 166.13 37.5683 165.987 36.8179 165.987C36.0675 165.987 35.3646 166.13 34.7092 166.414C34.0633 166.699 33.4982 167.094 33.0138 167.597C32.5388 168.1 32.1636 168.694 31.8882 169.378C31.6127 170.052 31.475 170.789 31.475 171.586C31.475 172.384 31.6127 173.125 31.8882 173.809C32.1636 174.493 32.5388 175.087 33.0138 175.59C33.4982 176.084 34.0633 176.473 34.7092 176.758C35.3646 177.043 36.0675 177.186 36.8179 177.186Z" fill="#E8E8E8"></path><path d="M53.2249 179.237C52.2561 179.237 51.368 179.1 50.5606 178.824C49.7627 178.549 49.0741 178.121 48.4947 177.542C47.9153 176.953 47.4641 176.207 47.1412 175.305C46.8182 174.403 46.6568 173.329 46.6568 172.085V164.334H48.8224V172.028C48.8224 173.747 49.2023 175.039 49.9622 175.903C50.7221 176.758 51.8002 177.186 53.1964 177.186C54.5927 177.186 55.6708 176.758 56.4307 175.903C57.1905 175.049 57.5705 173.757 57.5705 172.028V164.334H59.7361V172.085C59.7361 173.329 59.5746 174.403 59.2517 175.305C58.9288 176.207 58.4776 176.953 57.8982 177.542C57.3188 178.121 56.6301 178.549 55.8323 178.824C55.0344 179.1 54.1653 179.237 53.2249 179.237Z" fill="#E8E8E8"></path><path d="M75.4673 179.237C74.4699 179.237 73.5438 179.038 72.689 178.639C71.8341 178.24 71.0885 177.699 70.4521 177.015C69.8157 176.321 69.317 175.509 68.9561 174.578C68.5951 173.648 68.4147 172.65 68.4147 171.586C68.4147 170.523 68.5951 169.53 68.9561 168.609C69.317 167.678 69.8157 166.87 70.4521 166.187C71.0885 165.493 71.8341 164.947 72.689 164.548C73.5438 164.149 74.4652 163.95 75.453 163.95C76.1274 163.95 76.7638 164.035 77.3622 164.206C77.9701 164.377 78.5257 164.624 79.0292 164.947C79.5421 165.26 79.998 165.645 80.3969 166.101C80.7959 166.557 81.1188 167.065 81.3658 167.626V164.334H83.4459V178.838H81.3658V175.576C81.1188 176.136 80.7959 176.644 80.3969 177.1C79.998 177.547 79.5421 177.931 79.0292 178.254C78.5257 178.568 77.9701 178.81 77.3622 178.981C76.7638 179.152 76.1321 179.237 75.4673 179.237ZM75.9374 177.186C76.6783 177.186 77.3717 177.043 78.0176 176.758C78.673 176.473 79.2429 176.079 79.7273 175.576C80.2117 175.072 80.5917 174.483 80.8671 173.809C81.1521 173.125 81.2945 172.384 81.2945 171.586C81.2945 170.798 81.1521 170.067 80.8671 169.392C80.5917 168.708 80.2117 168.115 79.7273 167.611C79.2429 167.108 78.673 166.714 78.0176 166.429C77.3717 166.134 76.6783 165.987 75.9374 165.987C75.1965 165.987 74.4984 166.13 73.843 166.414C73.1971 166.69 72.632 167.075 72.1475 167.569C71.6631 168.062 71.2784 168.651 70.9935 169.335C70.718 170.019 70.5803 170.77 70.5803 171.586C70.5803 172.413 70.7228 173.173 71.0077 173.866C71.2927 174.55 71.6774 175.139 72.1618 175.633C72.6462 176.127 73.2114 176.511 73.8573 176.787C74.5127 177.053 75.206 177.186 75.9374 177.186Z" fill="#E8E8E8"></path><path d="M94.1192 159.462H102.326C103.257 159.462 104.107 159.609 104.876 159.903C105.655 160.188 106.325 160.597 106.885 161.129C107.455 161.651 107.897 162.283 108.21 163.024C108.524 163.764 108.68 164.586 108.68 165.488C108.68 166.21 108.576 166.88 108.367 167.497C108.158 168.105 107.863 168.651 107.483 169.136C107.104 169.62 106.648 170.029 106.116 170.361C105.584 170.694 104.995 170.94 104.349 171.102L109.093 178.838H106.5L102.084 171.43C101.979 171.439 101.879 171.444 101.784 171.444C101.689 171.444 101.59 171.444 101.485 171.444H96.356V178.838H94.1192V159.462ZM102.283 169.52C102.881 169.52 103.432 169.425 103.936 169.236C104.449 169.036 104.89 168.761 105.261 168.409C105.631 168.058 105.921 167.635 106.13 167.141C106.339 166.647 106.443 166.101 106.443 165.503C106.443 164.914 106.334 164.377 106.116 163.893C105.907 163.399 105.612 162.976 105.232 162.625C104.862 162.264 104.42 161.983 103.907 161.784C103.394 161.585 102.839 161.485 102.24 161.485H96.356V169.52H102.283Z" fill="#E8E8E8"></path><path d="M125.429 173.51C125.429 174.317 125.287 175.053 125.002 175.718C124.717 176.374 124.304 176.943 123.762 177.428C123.221 177.912 122.556 178.307 121.768 178.61C120.989 178.905 120.101 179.095 119.103 179.18V181.916H117.023V179.209C115.874 179.142 114.872 178.924 114.017 178.553C113.172 178.183 112.469 177.722 111.908 177.171C111.357 176.621 110.944 176.008 110.669 175.334C110.403 174.65 110.27 173.966 110.27 173.282H112.521C112.521 173.804 112.64 174.308 112.877 174.792C113.115 175.277 113.461 175.704 113.917 176.074C114.373 176.445 114.924 176.744 115.57 176.972C116.225 177.19 116.966 177.3 117.793 177.3C119.502 177.3 120.823 176.986 121.753 176.359C122.694 175.723 123.164 174.773 123.164 173.51C123.164 172.902 123.026 172.389 122.751 171.971C122.485 171.553 122.114 171.202 121.639 170.917C121.174 170.632 120.623 170.404 119.987 170.233C119.35 170.062 118.662 169.924 117.921 169.82C117.389 169.734 116.838 169.63 116.268 169.506C115.708 169.383 115.161 169.231 114.63 169.05C114.107 168.86 113.613 168.632 113.148 168.366C112.682 168.1 112.274 167.782 111.922 167.412C111.571 167.032 111.291 166.595 111.082 166.101C110.882 165.607 110.783 165.037 110.783 164.391C110.783 163.717 110.897 163.071 111.125 162.454C111.353 161.836 111.714 161.285 112.207 160.801C112.711 160.316 113.357 159.918 114.145 159.604C114.933 159.291 115.893 159.105 117.023 159.048V156.242H119.103V159.105C120.006 159.21 120.799 159.419 121.483 159.732C122.176 160.036 122.755 160.421 123.221 160.886C123.686 161.352 124.038 161.888 124.275 162.496C124.513 163.104 124.631 163.764 124.631 164.477H122.38C122.38 163.964 122.276 163.498 122.067 163.081C121.867 162.653 121.568 162.287 121.169 161.983C120.77 161.679 120.281 161.447 119.702 161.285C119.122 161.114 118.462 161.029 117.721 161.029C116.809 161.029 116.05 161.124 115.442 161.314C114.834 161.504 114.349 161.755 113.988 162.069C113.637 162.382 113.385 162.743 113.233 163.152C113.091 163.551 113.02 163.964 113.02 164.391C113.02 164.933 113.143 165.398 113.39 165.788C113.646 166.177 114.012 166.509 114.487 166.785C114.962 167.06 115.546 167.288 116.24 167.469C116.933 167.649 117.721 167.796 118.605 167.91C119.384 168.024 120.177 168.195 120.984 168.423C121.791 168.642 122.523 168.965 123.178 169.392C123.843 169.81 124.384 170.352 124.802 171.016C125.22 171.681 125.429 172.512 125.429 173.51Z" fill="#E8E8E8"></path><path d="M129.883 161.599L126.107 163.152L126.093 161.129L130.224 159.447H132.134V178.838H129.883V161.599Z" fill="#E8E8E8"></path><path d="M141.773 159.091C142.751 159.091 143.649 159.257 144.466 159.59C145.292 159.922 146.005 160.378 146.603 160.958C147.201 161.528 147.667 162.202 147.999 162.981C148.332 163.76 148.498 164.596 148.498 165.488C148.498 165.973 148.446 166.438 148.341 166.885C148.246 167.331 148.09 167.792 147.871 168.267C147.662 168.742 147.391 169.259 147.059 169.82C146.736 170.38 146.342 171.016 145.876 171.729L141.289 178.838H138.71L143.867 170.974C143.488 171.221 143.074 171.415 142.628 171.558C142.191 171.7 141.73 171.772 141.246 171.772C140.42 171.772 139.631 171.615 138.881 171.301C138.13 170.978 137.47 170.537 136.9 169.976C136.34 169.406 135.894 168.742 135.561 167.982C135.229 167.212 135.062 166.381 135.062 165.488C135.062 164.596 135.229 163.76 135.561 162.981C135.894 162.202 136.359 161.528 136.957 160.958C137.556 160.378 138.263 159.922 139.08 159.59C139.907 159.257 140.804 159.091 141.773 159.091ZM141.773 161.157C141.156 161.157 140.581 161.266 140.049 161.485C139.527 161.703 139.071 162.007 138.681 162.397C138.292 162.777 137.983 163.232 137.755 163.764C137.537 164.287 137.428 164.857 137.428 165.474C137.428 166.092 137.537 166.666 137.755 167.198C137.983 167.73 138.292 168.191 138.681 168.58C139.071 168.97 139.527 169.278 140.049 169.506C140.581 169.725 141.156 169.834 141.773 169.834C142.495 169.834 143.127 169.691 143.668 169.406C144.209 169.122 144.661 168.765 145.022 168.338C145.392 167.901 145.667 167.426 145.848 166.913C146.038 166.4 146.133 165.921 146.133 165.474C146.133 164.857 146.019 164.287 145.791 163.764C145.572 163.232 145.268 162.777 144.879 162.397C144.49 162.007 144.029 161.703 143.497 161.485C142.965 161.266 142.39 161.157 141.773 161.157Z" fill="#E8E8E8"></path><path d="M160.089 161.328H149.802V159.462H162.754V160.701L153.92 178.838H151.526L160.089 161.328Z" fill="#E8E8E8"></path><path d="M177.316 179.237C176.319 179.237 175.393 179.038 174.538 178.639C173.683 178.24 172.938 177.699 172.301 177.015C171.665 176.321 171.166 175.509 170.805 174.578C170.444 173.648 170.264 172.65 170.264 171.586C170.264 170.523 170.444 169.53 170.805 168.609C171.166 167.678 171.665 166.87 172.301 166.187C172.938 165.493 173.683 164.947 174.538 164.548C175.393 164.149 176.314 163.95 177.302 163.95C177.977 163.95 178.613 164.035 179.211 164.206C179.819 164.377 180.375 164.624 180.878 164.947C181.391 165.26 181.847 165.645 182.246 166.101C182.645 166.557 182.968 167.065 183.215 167.626V164.334H185.295V178.838H183.215V175.576C182.968 176.136 182.645 176.644 182.246 177.1C181.847 177.547 181.391 177.931 180.878 178.254C180.375 178.568 179.819 178.81 179.211 178.981C178.613 179.152 177.981 179.237 177.316 179.237ZM177.787 177.186C178.527 177.186 179.221 177.043 179.867 176.758C180.522 176.473 181.092 176.079 181.576 175.576C182.061 175.072 182.441 174.483 182.716 173.809C183.001 173.125 183.144 172.384 183.144 171.586C183.144 170.798 183.001 170.067 182.716 169.392C182.441 168.708 182.061 168.115 181.576 167.611C181.092 167.108 180.522 166.714 179.867 166.429C179.221 166.134 178.527 165.987 177.787 165.987C177.046 165.987 176.348 166.13 175.692 166.414C175.046 166.69 174.481 167.075 173.997 167.569C173.512 168.062 173.128 168.651 172.843 169.335C172.567 170.019 172.429 170.77 172.429 171.586C172.429 172.413 172.572 173.173 172.857 173.866C173.142 174.55 173.527 175.139 174.011 175.633C174.495 176.127 175.061 176.511 175.706 176.787C176.362 177.053 177.055 177.186 177.787 177.186Z" fill="#E8E8E8"></path><path d="M193.446 164.334H195.769L200.057 174.977L200.399 176.217L200.741 174.992L205.03 164.334H207.366L201.439 178.838H199.359L193.446 164.334Z" fill="#E8E8E8"></path><path d="M210.224 161.342C209.768 161.342 209.402 161.205 209.127 160.929C208.851 160.644 208.714 160.297 208.714 159.889C208.714 159.49 208.847 159.153 209.113 158.877C209.388 158.593 209.763 158.45 210.238 158.45C210.713 158.45 211.088 158.593 211.364 158.877C211.639 159.153 211.777 159.49 211.777 159.889C211.777 160.297 211.639 160.644 211.364 160.929C211.088 161.205 210.708 161.342 210.224 161.342ZM209.141 164.334H211.335V178.838H209.141V164.334Z" fill="#E8E8E8"></path><path d="M220.077 179.237C219.08 179.237 218.201 179.104 217.441 178.838C216.691 178.563 216.064 178.202 215.561 177.756C215.067 177.309 214.691 176.796 214.435 176.217C214.188 175.637 214.065 175.044 214.065 174.436H216.159C216.168 174.854 216.259 175.248 216.43 175.618C216.61 175.979 216.867 176.298 217.199 176.573C217.532 176.849 217.94 177.067 218.424 177.228C218.909 177.38 219.464 177.456 220.091 177.456C221.25 177.456 222.129 177.228 222.727 176.773C223.326 176.317 223.625 175.694 223.625 174.906C223.625 174.479 223.535 174.122 223.354 173.838C223.183 173.553 222.931 173.315 222.599 173.125C222.276 172.935 221.877 172.783 221.402 172.669C220.937 172.546 220.41 172.436 219.821 172.342C219.146 172.237 218.5 172.095 217.883 171.914C217.275 171.734 216.738 171.487 216.273 171.173C215.817 170.85 215.451 170.442 215.176 169.948C214.9 169.454 214.763 168.846 214.763 168.124C214.763 167.554 214.867 167.018 215.076 166.514C215.285 166.001 215.603 165.555 216.031 165.175C216.458 164.795 216.99 164.496 217.626 164.277C218.272 164.049 219.023 163.935 219.878 163.935C220.704 163.935 221.454 164.045 222.129 164.263C222.813 164.472 223.392 164.766 223.867 165.146C224.351 165.526 224.722 165.978 224.978 166.5C225.244 167.022 225.377 167.592 225.377 168.21L223.226 168.195C223.188 167.464 222.874 166.88 222.285 166.443C221.697 165.997 220.894 165.773 219.878 165.773C219.374 165.773 218.937 165.835 218.567 165.959C218.196 166.082 217.888 166.248 217.641 166.457C217.394 166.666 217.209 166.913 217.085 167.198C216.971 167.474 216.914 167.768 216.914 168.081C216.914 168.442 216.971 168.756 217.085 169.022C217.209 169.278 217.408 169.501 217.683 169.691C217.959 169.881 218.329 170.048 218.795 170.19C219.26 170.323 219.835 170.447 220.519 170.561C221.165 170.665 221.801 170.798 222.428 170.959C223.064 171.111 223.634 171.339 224.138 171.643C224.641 171.947 225.05 172.351 225.363 172.854C225.676 173.358 225.833 174.008 225.833 174.806C225.833 175.528 225.695 176.169 225.42 176.73C225.145 177.281 224.75 177.741 224.237 178.112C223.734 178.482 223.126 178.762 222.414 178.952C221.711 179.142 220.932 179.237 220.077 179.237Z" fill="#E8E8E8"></path><path d="M233.962 178.838C233.411 178.838 232.865 178.772 232.324 178.639C231.782 178.497 231.298 178.231 230.871 177.841C230.453 177.452 230.111 176.91 229.845 176.217C229.588 175.523 229.46 174.621 229.46 173.51V166.258H226.169V164.334H229.46V160.003L231.64 159.989V164.334H236.555V166.258H231.64V173.61C231.64 174.331 231.721 174.911 231.882 175.348C232.044 175.785 232.253 176.127 232.509 176.374C232.766 176.611 233.055 176.773 233.378 176.858C233.711 176.934 234.043 176.972 234.375 176.972H236.555V178.838H233.962Z" fill="#E8E8E8"></path><path d="M244.243 179.237C243.246 179.237 242.319 179.038 241.465 178.639C240.61 178.24 239.864 177.699 239.228 177.015C238.591 176.321 238.093 175.509 237.732 174.578C237.371 173.648 237.19 172.65 237.19 171.586C237.19 170.523 237.371 169.53 237.732 168.609C238.093 167.678 238.591 166.87 239.228 166.187C239.864 165.493 240.61 164.947 241.465 164.548C242.319 164.149 243.241 163.95 244.229 163.95C244.903 163.95 245.539 164.035 246.138 164.206C246.746 164.377 247.301 164.624 247.805 164.947C248.318 165.26 248.774 165.645 249.173 166.101C249.571 166.557 249.894 167.065 250.141 167.626V164.334H252.222V178.838H250.141V175.576C249.894 176.136 249.571 176.644 249.173 177.1C248.774 177.547 248.318 177.931 247.805 178.254C247.301 178.568 246.746 178.81 246.138 178.981C245.539 179.152 244.908 179.237 244.243 179.237ZM244.713 177.186C245.454 177.186 246.147 177.043 246.793 176.758C247.449 176.473 248.018 176.079 248.503 175.576C248.987 175.072 249.367 174.483 249.643 173.809C249.928 173.125 250.07 172.384 250.07 171.586C250.07 170.798 249.928 170.067 249.643 169.392C249.367 168.708 248.987 168.115 248.503 167.611C248.018 167.108 247.449 166.714 246.793 166.429C246.147 166.134 245.454 165.987 244.713 165.987C243.972 165.987 243.274 166.13 242.619 166.414C241.973 166.69 241.408 167.075 240.923 167.569C240.439 168.062 240.054 168.651 239.769 169.335C239.494 170.019 239.356 170.77 239.356 171.586C239.356 172.413 239.498 173.173 239.783 173.866C240.068 174.55 240.453 175.139 240.937 175.633C241.422 176.127 241.987 176.511 242.633 176.787C243.288 177.053 243.982 177.186 244.713 177.186Z" fill="#E8E8E8"></path><path d="M267.012 183.953C266.11 183.07 265.35 182.115 264.733 181.09C264.125 180.073 263.631 179.009 263.251 177.898C262.881 176.787 262.615 175.647 262.453 174.479C262.292 173.31 262.211 172.137 262.211 170.959C262.211 169.763 262.292 168.58 262.453 167.412C262.615 166.243 262.881 165.108 263.251 164.007C263.621 162.905 264.111 161.841 264.718 160.815C265.336 159.789 266.091 158.825 266.984 157.923H269.32C268.532 158.654 267.834 159.514 267.226 160.502C266.618 161.49 266.105 162.553 265.687 163.693C265.279 164.833 264.97 166.02 264.761 167.255C264.552 168.49 264.448 169.72 264.448 170.945V171.244C264.467 172.451 264.581 173.652 264.79 174.849C265.008 176.036 265.322 177.181 265.73 178.283C266.138 179.385 266.642 180.415 267.24 181.375C267.848 182.343 268.542 183.203 269.32 183.953H267.012Z" fill="#E8E8E8"></path><path d="M276.851 179.237C276.063 179.237 275.265 179.119 274.458 178.881C273.66 178.653 272.938 178.283 272.292 177.77C271.646 177.247 271.119 176.568 270.71 175.732C270.302 174.897 270.093 173.88 270.084 172.683H272.32C272.33 173.538 272.482 174.255 272.776 174.835C273.071 175.405 273.441 175.865 273.888 176.217C274.334 176.559 274.823 176.806 275.355 176.958C275.897 177.1 276.41 177.171 276.894 177.171C277.502 177.171 278.076 177.057 278.618 176.83C279.169 176.602 279.653 176.288 280.071 175.889C280.489 175.49 280.822 175.015 281.069 174.464C281.315 173.913 281.439 173.315 281.439 172.669C281.439 172.052 281.32 171.487 281.083 170.974C280.845 170.451 280.503 170.005 280.057 169.634C279.62 169.255 279.093 168.96 278.475 168.751C277.858 168.542 277.165 168.438 276.395 168.438H274.529V167.269L279.174 161.414L279.245 161.328H271.038V159.462H281.966V160.715L277.193 166.543L277.008 166.785C278.024 166.823 278.941 166.98 279.758 167.255C280.584 167.521 281.287 167.901 281.866 168.395C282.446 168.889 282.892 169.497 283.206 170.219C283.519 170.94 283.676 171.776 283.676 172.726C283.676 173.638 283.505 174.488 283.163 175.277C282.821 176.065 282.346 176.754 281.738 177.342C281.14 177.931 280.423 178.397 279.587 178.739C278.751 179.071 277.839 179.237 276.851 179.237Z" fill="#E8E8E8"></path><path d="M293.466 166.243H290.303V164.334H293.466V163.266C293.466 162.667 293.551 162.093 293.722 161.542C293.893 160.981 294.15 160.492 294.492 160.074C294.843 159.647 295.28 159.31 295.802 159.063C296.334 158.806 296.956 158.678 297.669 158.678H299.991V160.53H298.153C297.764 160.53 297.412 160.606 297.099 160.758C296.785 160.901 296.519 161.1 296.301 161.357C296.092 161.613 295.931 161.922 295.817 162.283C295.703 162.634 295.646 163.019 295.646 163.437V164.334H299.877V166.243H295.646V178.838H293.466V166.243Z" fill="#E8E8E8"></path><path d="M301.709 164.334H303.817V167.754C304.178 166.69 304.753 165.854 305.541 165.246C306.339 164.638 307.28 164.334 308.362 164.334H309.73V166.258H308.476C307.831 166.258 307.227 166.386 306.667 166.642C306.107 166.899 305.622 167.274 305.214 167.768C304.805 168.262 304.482 168.865 304.245 169.577C304.017 170.28 303.903 171.083 303.903 171.985V178.838H301.709V164.334Z" fill="#E8E8E8"></path><path d="M316.876 179.237C315.879 179.237 314.953 179.038 314.098 178.639C313.243 178.24 312.498 177.699 311.861 177.015C311.225 176.321 310.726 175.509 310.365 174.578C310.004 173.648 309.824 172.65 309.824 171.586C309.824 170.523 310.004 169.53 310.365 168.609C310.726 167.678 311.225 166.87 311.861 166.187C312.498 165.493 313.243 164.947 314.098 164.548C314.953 164.149 315.874 163.95 316.862 163.95C317.536 163.95 318.173 164.035 318.771 164.206C319.379 164.377 319.935 164.624 320.438 164.947C320.951 165.26 321.407 165.645 321.806 166.101C322.205 166.557 322.528 167.065 322.775 167.626V164.334H324.855V178.838H322.775V175.576C322.528 176.136 322.205 176.644 321.806 177.1C321.407 177.547 320.951 177.931 320.438 178.254C319.935 178.568 319.379 178.81 318.771 178.981C318.173 179.152 317.541 179.237 316.876 179.237ZM317.346 177.186C318.087 177.186 318.781 177.043 319.427 176.758C320.082 176.473 320.652 176.079 321.136 175.576C321.621 175.072 322.001 174.483 322.276 173.809C322.561 173.125 322.704 172.384 322.704 171.586C322.704 170.798 322.561 170.067 322.276 169.392C322.001 168.708 321.621 168.115 321.136 167.611C320.652 167.108 320.082 166.714 319.427 166.429C318.781 166.134 318.087 165.987 317.346 165.987C316.606 165.987 315.907 166.13 315.252 166.414C314.606 166.69 314.041 167.075 313.557 167.569C313.072 168.062 312.687 168.651 312.403 169.335C312.127 170.019 311.989 170.77 311.989 171.586C311.989 172.413 312.132 173.173 312.417 173.866C312.702 174.55 313.086 175.139 313.571 175.633C314.055 176.127 314.62 176.511 315.266 176.787C315.922 177.053 316.615 177.186 317.346 177.186Z" fill="#E8E8E8"></path><path d="M333.625 179.237C332.628 179.237 331.749 179.104 330.99 178.838C330.239 178.563 329.612 178.202 329.109 177.756C328.615 177.309 328.24 176.796 327.983 176.217C327.736 175.637 327.613 175.044 327.613 174.436H329.707C329.717 174.854 329.807 175.248 329.978 175.618C330.158 175.979 330.415 176.298 330.747 176.573C331.08 176.849 331.488 177.067 331.973 177.228C332.457 177.38 333.013 177.456 333.64 177.456C334.798 177.456 335.677 177.228 336.275 176.773C336.874 176.317 337.173 175.694 337.173 174.906C337.173 174.479 337.083 174.122 336.902 173.838C336.731 173.553 336.48 173.315 336.147 173.125C335.824 172.935 335.425 172.783 334.95 172.669C334.485 172.546 333.958 172.436 333.369 172.342C332.694 172.237 332.049 172.095 331.431 171.914C330.823 171.734 330.287 171.487 329.821 171.173C329.365 170.85 329 170.442 328.724 169.948C328.449 169.454 328.311 168.846 328.311 168.124C328.311 167.554 328.415 167.018 328.624 166.514C328.833 166.001 329.152 165.555 329.579 165.175C330.006 164.795 330.538 164.496 331.175 164.277C331.821 164.049 332.571 163.935 333.426 163.935C334.252 163.935 335.003 164.045 335.677 164.263C336.361 164.472 336.94 164.766 337.415 165.146C337.9 165.526 338.27 165.978 338.527 166.5C338.793 167.022 338.925 167.592 338.925 168.21L336.774 168.195C336.736 167.464 336.423 166.88 335.834 166.443C335.245 165.997 334.442 165.773 333.426 165.773C332.922 165.773 332.486 165.835 332.115 165.959C331.745 166.082 331.436 166.248 331.189 166.457C330.942 166.666 330.757 166.913 330.633 167.198C330.519 167.474 330.462 167.768 330.462 168.081C330.462 168.442 330.519 168.756 330.633 169.022C330.757 169.278 330.956 169.501 331.232 169.691C331.507 169.881 331.878 170.048 332.343 170.19C332.808 170.323 333.383 170.447 334.067 170.561C334.713 170.665 335.349 170.798 335.976 170.959C336.613 171.111 337.182 171.339 337.686 171.643C338.189 171.947 338.598 172.351 338.911 172.854C339.225 173.358 339.381 174.008 339.381 174.806C339.381 175.528 339.244 176.169 338.968 176.73C338.693 177.281 338.299 177.741 337.786 178.112C337.282 178.482 336.674 178.762 335.962 178.952C335.259 179.142 334.48 179.237 333.625 179.237Z" fill="#E8E8E8"></path><path d="M348.109 179.237C347.074 179.237 346.105 179.038 345.202 178.639C344.3 178.24 343.516 177.694 342.852 177C342.196 176.307 341.678 175.5 341.299 174.578C340.919 173.648 340.729 172.65 340.729 171.586C340.729 170.532 340.919 169.539 341.299 168.609C341.678 167.678 342.196 166.866 342.852 166.172C343.516 165.479 344.3 164.933 345.202 164.534C346.105 164.135 347.074 163.935 348.109 163.935C348.954 163.935 349.743 164.059 350.474 164.306C351.215 164.553 351.88 164.899 352.469 165.346C353.067 165.792 353.58 166.324 354.007 166.942C354.435 167.559 354.763 168.238 354.991 168.979H352.739C352.54 168.495 352.283 168.067 351.97 167.697C351.657 167.326 351.296 167.013 350.887 166.756C350.488 166.5 350.051 166.31 349.576 166.187C349.111 166.054 348.622 165.987 348.109 165.987C347.453 165.987 346.812 166.12 346.185 166.386C345.559 166.642 345.003 167.013 344.518 167.497C344.034 167.982 343.645 168.571 343.35 169.264C343.056 169.948 342.909 170.722 342.909 171.586C342.909 172.451 343.056 173.23 343.35 173.923C343.645 174.616 344.034 175.205 344.518 175.69C345.012 176.174 345.568 176.549 346.185 176.815C346.812 177.072 347.453 177.2 348.109 177.2C348.622 177.2 349.111 177.133 349.576 177C350.051 176.868 350.488 176.673 350.887 176.416C351.296 176.16 351.657 175.842 351.97 175.462C352.283 175.072 352.54 174.621 352.739 174.108H354.976C354.767 174.868 354.449 175.566 354.022 176.203C353.594 176.83 353.081 177.371 352.483 177.827C351.885 178.273 351.215 178.62 350.474 178.867C349.743 179.114 348.954 179.237 348.109 179.237Z" fill="#E8E8E8"></path><path d="M363.747 179.237C362.683 179.237 361.69 179.038 360.769 178.639C359.857 178.24 359.064 177.699 358.389 177.015C357.725 176.321 357.197 175.509 356.808 174.578C356.428 173.648 356.238 172.65 356.238 171.586C356.238 170.523 356.428 169.525 356.808 168.594C357.188 167.664 357.715 166.856 358.389 166.172C359.064 165.479 359.857 164.933 360.769 164.534C361.69 164.135 362.683 163.935 363.747 163.935C364.82 163.935 365.812 164.135 366.724 164.534C367.646 164.933 368.444 165.479 369.118 166.172C369.792 166.856 370.32 167.664 370.699 168.594C371.079 169.525 371.269 170.523 371.269 171.586C371.269 172.65 371.079 173.648 370.699 174.578C370.32 175.509 369.792 176.321 369.118 177.015C368.444 177.708 367.646 178.254 366.724 178.653C365.812 179.043 364.82 179.237 363.747 179.237ZM363.761 177.186C364.511 177.186 365.209 177.043 365.855 176.758C366.511 176.473 367.076 176.084 367.551 175.59C368.035 175.087 368.415 174.493 368.691 173.809C368.966 173.125 369.104 172.384 369.104 171.586C369.104 170.789 368.966 170.052 368.691 169.378C368.415 168.694 368.035 168.1 367.551 167.597C367.076 167.094 366.511 166.699 365.855 166.414C365.209 166.13 364.511 165.987 363.761 165.987C363.01 165.987 362.308 166.13 361.652 166.414C361.006 166.699 360.441 167.094 359.957 167.597C359.482 168.1 359.107 168.694 358.831 169.378C358.556 170.052 358.418 170.789 358.418 171.586C358.418 172.384 358.556 173.125 358.831 173.809C359.107 174.493 359.482 175.087 359.957 175.59C360.441 176.084 361.006 176.473 361.652 176.758C362.308 177.043 363.01 177.186 363.761 177.186Z" fill="#E8E8E8"></path><path d="M378.757 179.237C377.76 179.237 376.881 179.104 376.122 178.838C375.371 178.563 374.744 178.202 374.241 177.756C373.747 177.309 373.372 176.796 373.115 176.217C372.868 175.637 372.745 175.044 372.745 174.436H374.839C374.849 174.854 374.939 175.248 375.11 175.618C375.29 175.979 375.547 176.298 375.879 176.573C376.212 176.849 376.62 177.067 377.105 177.228C377.589 177.38 378.145 177.456 378.772 177.456C379.93 177.456 380.809 177.228 381.407 176.773C382.006 176.317 382.305 175.694 382.305 174.906C382.305 174.479 382.215 174.122 382.034 173.838C381.863 173.553 381.612 173.315 381.279 173.125C380.956 172.935 380.557 172.783 380.082 172.669C379.617 172.546 379.09 172.436 378.501 172.342C377.826 172.237 377.181 172.095 376.563 171.914C375.955 171.734 375.419 171.487 374.953 171.173C374.497 170.85 374.132 170.442 373.856 169.948C373.581 169.454 373.443 168.846 373.443 168.124C373.443 167.554 373.547 167.018 373.756 166.514C373.965 166.001 374.284 165.555 374.711 165.175C375.138 164.795 375.67 164.496 376.307 164.277C376.953 164.049 377.703 163.935 378.558 163.935C379.384 163.935 380.135 164.045 380.809 164.263C381.493 164.472 382.072 164.766 382.547 165.146C383.032 165.526 383.402 165.978 383.659 166.5C383.925 167.022 384.057 167.592 384.057 168.21L381.906 168.195C381.868 167.464 381.555 166.88 380.966 166.443C380.377 165.997 379.574 165.773 378.558 165.773C378.054 165.773 377.618 165.835 377.247 165.959C376.877 166.082 376.568 166.248 376.321 166.457C376.074 166.666 375.889 166.913 375.765 167.198C375.651 167.474 375.594 167.768 375.594 168.081C375.594 168.442 375.651 168.756 375.765 169.022C375.889 169.278 376.088 169.501 376.364 169.691C376.639 169.881 377.01 170.048 377.475 170.19C377.94 170.323 378.515 170.447 379.199 170.561C379.845 170.665 380.481 170.798 381.108 170.959C381.745 171.111 382.315 171.339 382.818 171.643C383.321 171.947 383.73 172.351 384.043 172.854C384.357 173.358 384.513 174.008 384.513 174.806C384.513 175.528 384.376 176.169 384.1 176.73C383.825 177.281 383.431 177.741 382.918 178.112C382.414 178.482 381.806 178.762 381.094 178.952C380.391 179.142 379.612 179.237 378.757 179.237Z" fill="#E8E8E8"></path><path d="M385.334 183.953C386.122 183.203 386.815 182.343 387.414 181.375C388.012 180.415 388.515 179.385 388.924 178.283C389.332 177.181 389.646 176.036 389.864 174.849C390.083 173.652 390.197 172.451 390.206 171.244V170.945C390.206 169.72 390.102 168.49 389.893 167.255C389.684 166.02 389.37 164.833 388.952 163.693C388.544 162.553 388.036 161.49 387.428 160.502C386.82 159.514 386.122 158.654 385.334 157.923H387.684C388.587 158.825 389.342 159.789 389.95 160.815C390.558 161.841 391.047 162.905 391.417 164.007C391.788 165.108 392.049 166.243 392.201 167.412C392.362 168.58 392.443 169.763 392.443 170.959C392.443 172.137 392.362 173.31 392.201 174.479C392.039 175.647 391.769 176.787 391.389 177.898C391.018 179.009 390.524 180.073 389.907 181.09C389.299 182.115 388.544 183.07 387.642 183.953H385.334Z" fill="#E8E8E8"></path><path d="M118.415 29.5101L190.799 2.68921" stroke="#EB3F45" stroke-width="5" stroke-linecap="round"></path></svg>